<?xml version="1.0" encoding="utf-8"?>
<!-- Generator: Adobe Illustrator 16.0.3, SVG Export Plug-In . SVG Version: 6.00 Build 0)  -->
<!DOCTYPE svg PUBLIC "-//W3C//DTD SVG 1.1//EN" "http://www.w3.org/Graphics/SVG/1.1/DTD/svg11.dtd">
<svg version="1.1" id="Layer_1" xmlns="http://www.w3.org/2000/svg" xmlns:xlink="http://www.w3.org/1999/xlink" x="0px" y="0px"
	 width="380px" height="380px" viewBox="0 0 380 380" enable-background="new 0 0 380 380" xml:space="preserve">
<path fill="#FFFFFF" d="M16.911,16.909L16.911,16.909 M0,0v380h381.418V0H0L0,0z"/>
<rect x="16.911" y="16.909" fill="#247F52" width="347.597" height="346.181"/>
<path fill="#FFFFFF" d="M86.165,249.457V41.032h208.794V336.99l-20.879,20.548H65.286l20.879-20.548v-43.731l-27.676,0.064
	l-8.475,0.019v-8.474C50.014,268.803,64.482,251.113,86.165,249.457z"/>
<path id="path1479-6-9" fill="#247F52" d="M218.839,69.653c-13.733,0-24.287,10.554-24.287,24.361
	c0,13.833,10.554,24.387,24.287,24.387c13.734,0,24.262-10.554,24.262-24.387C243.101,80.208,232.574,69.653,218.839,69.653z
	 M215.905,124.442c-23.991,0-71.902,0.076-71.902,0.076c-10.253,0.319-12.055,2.342-16.001,8.21l-22.437,37.529
	c-6.832,14.596,13.558,24.632,21.104,10.871l18.297-32.053c0.346-0.592,0.862-0.738,1.526-0.715l25.279,0.295
	c-6.909,14.743-13.814,29.466-20.716,44.262c-2.117,5.523-2.758,10.58-3.329,17.876c-0.912,14.696-1.728,29.489-2.586,44.188
	c-0.272,1.948-0.913,3.255-3.255,3.255c-18.472-0.074-53.803-0.47-53.803-0.47c-18.347,0.713-29.614,15.731-29.614,27.102
	l98.925-0.228c8.754-0.271,15.435-2.783,16.223-12.671l3.01-57.131c15.954,32.105,31.957,64.184,47.885,96.287
	c3.971,6.978,8.679,14.772,19.973,14.523l21.602,0.072l-58.883-118.897c-1.184-2.245,0.395-5.127,1.063-6.41
	c5.916-12.549,11.514-23.6,17.455-36.595l21.426,25.326c3.531,3.531,4.6,4.404,9.538,4.498c0.118,0.008,0.235,0.012,0.355,0.014
	c0.181,0.004,0.274,0.027,0.465,0.027c0.286,0,0.559-0.012,0.845-0.014h41.778c6.479,0,11.69-5.212,11.69-11.69
	c0-6.479-5.211-11.692-11.69-11.692h-19.889c-4.629-0.27-9.875-0.378-15.856-0.278c-3.23,0.027-3.993-0.666-5.35-2.293
	c-9.766-11.514-20.711-24.684-30.722-37.036c-3.724-3.969-4.613-6.413-12.406-6.24V124.442z"/>
<polygon fill="#247F52" points="200.964,359.526 232.678,359.526 260.269,333.097 228.554,333.097 "/>
</svg>
