<?xml version="1.0" encoding="UTF-8"?>
<!DOCTYPE svg PUBLIC "-//W3C//DTD SVG 1.1//EN" "http://www.w3.org/Graphics/SVG/1.1/DTD/svg11.dtd">
<svg version="1.2" width="95.09mm" height="68.22mm" viewBox="220 79 9509 6822" preserveAspectRatio="xMidYMid" fill-rule="evenodd" stroke-width="28.222" stroke-linejoin="round" xmlns="http://www.w3.org/2000/svg" xmlns:ooo="http://xml.openoffice.org/svg/export" xmlns:xlink="http://www.w3.org/1999/xlink" xmlns:presentation="http://sun.com/xmlns/staroffice/presentation" xmlns:smil="http://www.w3.org/2001/SMIL20/" xmlns:anim="urn:oasis:names:tc:opendocument:xmlns:animation:1.0" xmlns:svg="urn:oasis:names:tc:opendocument:xmlns:svg-compatible:1.0" xml:space="preserve">
 <defs class="EmbeddedBulletChars">
  <g id="bullet-char-template-57356" transform="scale(0.00048828125,-0.00048828125)">
   <path d="M 580,1141 L 1163,571 580,0 -4,571 580,1141 Z"/>
  </g>
  <g id="bullet-char-template-57354" transform="scale(0.00048828125,-0.00048828125)">
   <path d="M 8,1128 L 1137,1128 1137,0 8,0 8,1128 Z"/>
  </g>
  <g id="bullet-char-template-10146" transform="scale(0.00048828125,-0.00048828125)">
   <path d="M 174,0 L 602,739 174,1481 1456,739 174,0 Z M 1358,739 L 309,1346 659,739 1358,739 Z"/>
  </g>
  <g id="bullet-char-template-10132" transform="scale(0.00048828125,-0.00048828125)">
   <path d="M 2015,739 L 1276,0 717,0 1260,543 174,543 174,936 1260,936 717,1481 1274,1481 2015,739 Z"/>
  </g>
  <g id="bullet-char-template-10007" transform="scale(0.00048828125,-0.00048828125)">
   <path d="M 0,-2 C -7,14 -16,27 -25,37 L 356,567 C 262,823 215,952 215,954 215,979 228,992 255,992 264,992 276,990 289,987 310,991 331,999 354,1012 L 381,999 492,748 772,1049 836,1024 860,1049 C 881,1039 901,1025 922,1006 886,937 835,863 770,784 769,783 710,716 594,584 L 774,223 C 774,196 753,168 711,139 L 727,119 C 717,90 699,76 672,76 641,76 570,178 457,381 L 164,-76 C 142,-110 111,-127 72,-127 30,-127 9,-110 8,-76 1,-67 -2,-52 -2,-32 -2,-23 -1,-13 0,-2 Z"/>
  </g>
  <g id="bullet-char-template-10004" transform="scale(0.00048828125,-0.00048828125)">
   <path d="M 285,-33 C 182,-33 111,30 74,156 52,228 41,333 41,471 41,549 55,616 82,672 116,743 169,778 240,778 293,778 328,747 346,684 L 369,508 C 377,444 397,411 428,410 L 1163,1116 C 1174,1127 1196,1133 1229,1133 1271,1133 1292,1118 1292,1087 L 1292,965 C 1292,929 1282,901 1262,881 L 442,47 C 390,-6 338,-33 285,-33 Z"/>
  </g>
  <g id="bullet-char-template-9679" transform="scale(0.00048828125,-0.00048828125)">
   <path d="M 813,0 C 632,0 489,54 383,161 276,268 223,411 223,592 223,773 276,916 383,1023 489,1130 632,1184 813,1184 992,1184 1136,1130 1245,1023 1353,916 1407,772 1407,592 1407,412 1353,268 1245,161 1136,54 992,0 813,0 Z"/>
  </g>
  <g id="bullet-char-template-8226" transform="scale(0.00048828125,-0.00048828125)">
   <path d="M 346,457 C 273,457 209,483 155,535 101,586 74,649 74,723 74,796 101,859 155,911 209,963 273,989 346,989 419,989 480,963 531,910 582,859 608,796 608,723 608,648 583,586 532,535 482,483 420,457 346,457 Z"/>
  </g>
  <g id="bullet-char-template-8211" transform="scale(0.00048828125,-0.00048828125)">
   <path d="M -4,459 L 1135,459 1135,606 -4,606 -4,459 Z"/>
  </g>
  <g id="bullet-char-template-61548" transform="scale(0.00048828125,-0.00048828125)">
   <path d="M 173,740 C 173,903 231,1043 346,1159 462,1274 601,1332 765,1332 928,1332 1067,1274 1183,1159 1299,1043 1357,903 1357,740 1357,577 1299,437 1183,322 1067,206 928,148 765,148 601,148 462,206 346,322 231,437 173,577 173,740 Z"/>
  </g>
 </defs>
 <g class="Page">
  <g class="com.sun.star.drawing.CustomShape">
   <g id="id3">
    <rect class="BoundingBox" stroke="none" fill="none" x="2925" y="4902" width="302" height="293"/>
    <path fill="rgb(89,131,176)" fill-opacity="0.502" stroke="none" d="M 3076,5193 L 2926,5193 2926,4903 3225,4903 3225,5193 3076,5193 Z"/>
    <path fill="none" stroke="rgb(52,101,164)" d="M 3076,5193 L 2926,5193 2926,4903 3225,4903 3225,5193 3076,5193 Z"/>
   </g>
  </g>
  <g class="com.sun.star.drawing.CustomShape">
   <g id="id4">
    <rect class="BoundingBox" stroke="none" fill="none" x="1024" y="79" width="7899" height="5166"/>
    <path fill="rgb(128,128,128)" stroke="none" d="M 1885,80 L 1885,80 C 1734,80 1586,120 1455,195 1324,271 1216,379 1140,510 1065,641 1025,789 1025,941 L 1025,4382 1025,4383 C 1025,4534 1065,4682 1140,4813 1216,4944 1324,5052 1455,5128 1586,5203 1734,5243 1885,5243 L 8060,5243 8060,5243 C 8212,5243 8360,5203 8491,5128 8622,5052 8730,4944 8806,4813 8881,4682 8921,4534 8921,4383 L 8921,940 8921,941 8921,941 C 8921,789 8881,641 8806,510 8730,379 8622,271 8491,195 8360,120 8212,80 8060,80 L 1885,80 Z"/>
    <path fill="none" stroke="rgb(128,128,128)" d="M 1885,80 L 1885,80 C 1734,80 1586,120 1455,195 1324,271 1216,379 1140,510 1065,641 1025,789 1025,941 L 1025,4382 1025,4383 C 1025,4534 1065,4682 1140,4813 1216,4944 1324,5052 1455,5128 1586,5203 1734,5243 1885,5243 L 8060,5243 8060,5243 C 8212,5243 8360,5203 8491,5128 8622,5052 8730,4944 8806,4813 8881,4682 8921,4534 8921,4383 L 8921,940 8921,941 8921,941 C 8921,789 8881,641 8806,510 8730,379 8622,271 8491,195 8360,120 8212,80 8060,80 L 1885,80 Z"/>
   </g>
  </g>
  <g class="com.sun.star.drawing.CustomShape">
   <g id="id5">
    <rect class="BoundingBox" stroke="none" fill="none" x="1103" y="147" width="7748" height="5038"/>
    <path fill="rgb(42,96,153)" stroke="none" d="M 1943,148 L 1943,148 C 1796,148 1651,187 1524,260 1396,334 1290,440 1216,568 1143,695 1104,840 1104,987 L 1104,4343 1104,4344 C 1104,4491 1143,4636 1216,4763 1290,4891 1396,4997 1524,5071 1651,5144 1796,5183 1943,5183 L 8009,5183 8010,5183 C 8157,5183 8302,5144 8429,5071 8557,4997 8663,4891 8737,4763 8810,4636 8849,4491 8849,4344 L 8849,987 8849,987 8849,987 C 8849,840 8810,695 8737,568 8663,440 8557,334 8429,260 8302,187 8157,148 8010,148 L 1943,148 Z"/>
    <path fill="none" stroke="rgb(0,0,0)" d="M 1943,148 L 1943,148 C 1796,148 1651,187 1524,260 1396,334 1290,440 1216,568 1143,695 1104,840 1104,987 L 1104,4343 1104,4344 C 1104,4491 1143,4636 1216,4763 1290,4891 1396,4997 1524,5071 1651,5144 1796,5183 1943,5183 L 8009,5183 8010,5183 C 8157,5183 8302,5144 8429,5071 8557,4997 8663,4891 8737,4763 8810,4636 8849,4491 8849,4344 L 8849,987 8849,987 8849,987 C 8849,840 8810,695 8737,568 8663,440 8557,334 8429,260 8302,187 8157,148 8010,148 L 1943,148 Z"/>
   </g>
  </g>
  <g class="com.sun.star.drawing.CustomShape">
   <g id="id6">
    <rect class="BoundingBox" stroke="none" fill="none" x="220" y="5234" width="9509" height="1667"/>
    <path fill="rgb(128,128,128)" stroke="none" d="M 4974,6899 L 221,6899 221,5235 9727,5235 9727,6899 4974,6899 Z"/>
    <path fill="none" stroke="rgb(128,128,128)" d="M 4974,6899 L 221,6899 221,5235 9727,5235 9727,6899 4974,6899 Z"/>
   </g>
  </g>
  <g class="com.sun.star.drawing.CustomShape">
   <g id="id7">
    <rect class="BoundingBox" stroke="none" fill="none" x="1706" y="4903" width="6527" height="291"/>
    <path fill="rgb(180,199,220)" stroke="none" d="M 1755,4904 L 1755,4904 C 1747,4904 1738,4906 1731,4910 1724,4915 1718,4921 1713,4928 1709,4935 1707,4944 1707,4952 L 1707,5144 1707,5144 C 1707,5152 1709,5161 1713,5168 1718,5175 1724,5181 1731,5186 1738,5190 1747,5192 1755,5192 L 8183,5192 8183,5192 C 8191,5192 8200,5190 8207,5186 8214,5181 8220,5175 8225,5168 8229,5161 8231,5152 8231,5144 L 8231,4952 8231,4952 8231,4952 C 8231,4944 8229,4935 8225,4928 8220,4921 8214,4915 8207,4910 8200,4906 8191,4904 8183,4904 L 1755,4904 Z"/>
    <path fill="none" stroke="rgb(180,199,220)" d="M 1755,4904 L 1755,4904 C 1747,4904 1738,4906 1731,4910 1724,4915 1718,4921 1713,4928 1709,4935 1707,4944 1707,4952 L 1707,5144 1707,5144 C 1707,5152 1709,5161 1713,5168 1718,5175 1724,5181 1731,5186 1738,5190 1747,5192 1755,5192 L 8183,5192 8183,5192 C 8191,5192 8200,5190 8207,5186 8214,5181 8220,5175 8225,5168 8229,5161 8231,5152 8231,5144 L 8231,4952 8231,4952 8231,4952 C 8231,4944 8229,4935 8225,4928 8220,4921 8214,4915 8207,4910 8200,4906 8191,4904 8183,4904 L 1755,4904 Z"/>
   </g>
  </g>
  <g class="com.sun.star.drawing.CustomShape">
   <g id="id8">
    <rect class="BoundingBox" stroke="none" fill="none" x="2754" y="1589" width="2868" height="2422"/>
    <path fill="rgb(221,221,221)" stroke="none" d="M 4188,4009 L 2755,4009 2755,1590 5620,1590 5620,4009 4188,4009 Z"/>
    <path fill="none" stroke="rgb(221,221,221)" d="M 4188,4009 L 2755,4009 2755,1590 5620,1590 5620,4009 4188,4009 Z"/>
   </g>
  </g>
  <g class="com.sun.star.drawing.CustomShape">
   <g id="id9">
    <rect class="BoundingBox" stroke="none" fill="none" x="5275" y="1586" width="350" height="237"/>
    <path fill="rgb(159,2,2)" stroke="none" d="M 5450,1821 L 5276,1821 5276,1587 5623,1587 5623,1821 5450,1821 Z"/>
    <path fill="none" stroke="rgb(159,2,2)" d="M 5450,1821 L 5276,1821 5276,1587 5623,1587 5623,1821 5450,1821 Z"/>
   </g>
  </g>
  <g class="com.sun.star.drawing.CustomShape">
   <g id="id10">
    <rect class="BoundingBox" stroke="none" fill="none" x="2052" y="4930" width="238" height="234"/>
    <path fill="rgb(114,159,207)" stroke="none" d="M 2171,5162 L 2053,5162 2053,4931 2288,4931 2288,5162 2171,5162 Z"/>
    <path fill="none" stroke="rgb(52,101,164)" d="M 2171,5162 L 2053,5162 2053,4931 2288,4931 2288,5162 2171,5162 Z"/>
   </g>
  </g>
  <g class="com.sun.star.drawing.CustomShape">
   <g id="id11">
    <rect class="BoundingBox" stroke="none" fill="none" x="271" y="5274" width="317" height="317"/>
    <path fill="rgb(0,0,0)" stroke="none" d="M 586,5432 C 586,5460 579,5487 565,5511 551,5534 531,5554 508,5568 484,5582 457,5589 429,5589 401,5589 374,5582 351,5568 327,5554 307,5534 293,5511 279,5487 272,5460 272,5432 272,5404 279,5377 293,5354 307,5330 327,5310 351,5296 374,5282 401,5275 429,5275 457,5275 484,5282 508,5296 531,5310 551,5330 565,5354 579,5377 586,5404 586,5432 L 586,5432 Z"/>
    <path fill="none" stroke="rgb(0,0,0)" d="M 586,5432 C 586,5460 579,5487 565,5511 551,5534 531,5554 508,5568 484,5582 457,5589 429,5589 401,5589 374,5582 351,5568 327,5554 307,5534 293,5511 279,5487 272,5460 272,5432 272,5404 279,5377 293,5354 307,5330 327,5310 351,5296 374,5282 401,5275 429,5275 457,5275 484,5282 508,5296 531,5310 551,5330 565,5354 579,5377 586,5404 586,5432 Z"/>
   </g>
  </g>
  <g class="com.sun.star.drawing.CustomShape">
   <g id="id12">
    <rect class="BoundingBox" stroke="none" fill="none" x="671" y="5274" width="317" height="317"/>
    <path fill="rgb(0,0,0)" stroke="none" d="M 986,5432 C 986,5460 979,5487 965,5511 951,5534 931,5554 908,5568 884,5582 857,5589 829,5589 801,5589 774,5582 751,5568 727,5554 707,5534 693,5511 679,5487 672,5460 672,5432 672,5404 679,5377 693,5354 707,5330 727,5310 751,5296 774,5282 801,5275 829,5275 857,5275 884,5282 908,5296 931,5310 951,5330 965,5354 979,5377 986,5404 986,5432 L 986,5432 Z"/>
    <path fill="none" stroke="rgb(0,0,0)" d="M 986,5432 C 986,5460 979,5487 965,5511 951,5534 931,5554 908,5568 884,5582 857,5589 829,5589 801,5589 774,5582 751,5568 727,5554 707,5534 693,5511 679,5487 672,5460 672,5432 672,5404 679,5377 693,5354 707,5330 727,5310 751,5296 774,5282 801,5275 829,5275 857,5275 884,5282 908,5296 931,5310 951,5330 965,5354 979,5377 986,5404 986,5432 Z"/>
   </g>
  </g>
  <g class="com.sun.star.drawing.CustomShape">
   <g id="id13">
    <rect class="BoundingBox" stroke="none" fill="none" x="1071" y="5274" width="317" height="317"/>
    <path fill="rgb(201,33,30)" stroke="none" d="M 1386,5432 C 1386,5460 1379,5487 1365,5511 1351,5534 1331,5554 1307,5568 1284,5582 1257,5589 1229,5589 1201,5589 1174,5582 1151,5568 1127,5554 1107,5534 1093,5511 1079,5487 1072,5460 1072,5432 1072,5404 1079,5377 1093,5354 1107,5330 1127,5310 1151,5296 1174,5282 1201,5275 1229,5275 1257,5275 1284,5282 1307,5296 1331,5310 1351,5330 1365,5354 1379,5377 1386,5404 1386,5432 L 1386,5432 Z"/>
    <path fill="none" stroke="rgb(255,0,0)" d="M 1386,5432 C 1386,5460 1379,5487 1365,5511 1351,5534 1331,5554 1307,5568 1284,5582 1257,5589 1229,5589 1201,5589 1174,5582 1151,5568 1127,5554 1107,5534 1093,5511 1079,5487 1072,5460 1072,5432 1072,5404 1079,5377 1093,5354 1107,5330 1127,5310 1151,5296 1174,5282 1201,5275 1229,5275 1257,5275 1284,5282 1307,5296 1331,5310 1351,5330 1365,5354 1379,5377 1386,5404 1386,5432 Z"/>
   </g>
  </g>
  <g class="com.sun.star.drawing.CustomShape">
   <g id="id14">
    <rect class="BoundingBox" stroke="none" fill="none" x="1471" y="5274" width="317" height="317"/>
    <path fill="rgb(6,154,46)" stroke="none" d="M 1786,5432 C 1786,5460 1779,5487 1765,5511 1751,5534 1731,5554 1708,5568 1684,5582 1657,5589 1629,5589 1601,5589 1574,5582 1551,5568 1527,5554 1507,5534 1493,5511 1479,5487 1472,5460 1472,5432 1472,5404 1479,5377 1493,5354 1507,5330 1527,5310 1551,5296 1574,5282 1601,5275 1629,5275 1657,5275 1684,5282 1708,5296 1731,5310 1751,5330 1765,5354 1779,5377 1786,5404 1786,5432 L 1786,5432 Z"/>
    <path fill="none" stroke="rgb(6,154,46)" d="M 1786,5432 C 1786,5460 1779,5487 1765,5511 1751,5534 1731,5554 1708,5568 1684,5582 1657,5589 1629,5589 1601,5589 1574,5582 1551,5568 1527,5554 1507,5534 1493,5511 1479,5487 1472,5460 1472,5432 1472,5404 1479,5377 1493,5354 1507,5330 1527,5310 1551,5296 1574,5282 1601,5275 1629,5275 1657,5275 1684,5282 1708,5296 1731,5310 1751,5330 1765,5354 1779,5377 1786,5404 1786,5432 Z"/>
   </g>
  </g>
  <g class="com.sun.star.drawing.CustomShape">
   <g id="id15">
    <rect class="BoundingBox" stroke="none" fill="none" x="265" y="5672" width="3232" height="119"/>
    <path fill="rgb(51,51,51)" stroke="none" d="M 1881,5789 L 266,5789 266,5673 3495,5673 3495,5789 1881,5789 Z"/>
    <path fill="none" stroke="rgb(51,51,51)" d="M 1881,5789 L 266,5789 266,5673 3495,5673 3495,5789 1881,5789 Z"/>
   </g>
  </g>
  <g class="com.sun.star.drawing.CustomShape">
   <g id="id16">
    <rect class="BoundingBox" stroke="none" fill="none" x="1727" y="4908" width="285" height="279"/>
    <path fill="rgb(114,159,207)" stroke="none" d="M 2010,5047 C 2010,5071 2003,5095 1991,5116 1979,5137 1961,5154 1940,5167 1918,5179 1894,5185 1869,5185 1844,5185 1820,5179 1799,5167 1777,5154 1759,5137 1747,5116 1735,5095 1728,5071 1728,5047 1728,5023 1735,4999 1747,4978 1759,4957 1777,4940 1799,4927 1820,4915 1844,4909 1869,4909 1894,4909 1918,4915 1940,4927 1961,4940 1979,4957 1991,4978 2003,4999 2010,5023 2010,5047 L 2010,5047 Z"/>
    <path fill="none" stroke="rgb(102,102,102)" d="M 2010,5047 C 2010,5071 2003,5095 1991,5116 1979,5137 1961,5154 1940,5167 1918,5179 1894,5185 1869,5185 1844,5185 1820,5179 1799,5167 1777,5154 1759,5137 1747,5116 1735,5095 1728,5071 1728,5047 1728,5023 1735,4999 1747,4978 1759,4957 1777,4940 1799,4927 1820,4915 1844,4909 1869,4909 1894,4909 1918,4915 1940,4927 1961,4940 1979,4957 1991,4978 2003,4999 2010,5023 2010,5047 Z"/>
   </g>
  </g>
  <g class="com.sun.star.drawing.CustomShape">
   <g id="id17">
    <rect class="BoundingBox" stroke="none" fill="none" x="2823" y="2037" width="1401" height="212"/>
    <path fill="rgb(142,134,174)" stroke="none" d="M 2858,2038 L 2859,2038 C 2853,2038 2847,2040 2841,2043 2836,2046 2832,2050 2829,2055 2826,2061 2824,2067 2824,2073 L 2824,2212 2824,2212 C 2824,2218 2826,2224 2829,2230 2832,2235 2836,2239 2841,2242 2847,2245 2853,2247 2859,2247 L 4187,2247 4187,2247 C 4193,2247 4199,2245 4205,2242 4210,2239 4214,2235 4217,2230 4220,2224 4222,2218 4222,2212 L 4222,2072 4222,2073 4222,2073 C 4222,2067 4220,2061 4217,2055 4214,2050 4210,2046 4205,2043 4199,2040 4193,2038 4187,2038 L 2858,2038 Z"/>
    <path fill="none" stroke="rgb(52,101,164)" d="M 2858,2038 L 2859,2038 C 2853,2038 2847,2040 2841,2043 2836,2046 2832,2050 2829,2055 2826,2061 2824,2067 2824,2073 L 2824,2212 2824,2212 C 2824,2218 2826,2224 2829,2230 2832,2235 2836,2239 2841,2242 2847,2245 2853,2247 2859,2247 L 4187,2247 4187,2247 C 4193,2247 4199,2245 4205,2242 4210,2239 4214,2235 4217,2230 4220,2224 4222,2218 4222,2212 L 4222,2072 4222,2073 4222,2073 C 4222,2067 4220,2061 4217,2055 4214,2050 4210,2046 4205,2043 4199,2040 4193,2038 4187,2038 L 2858,2038 Z"/>
   </g>
  </g>
  <g class="com.sun.star.drawing.CustomShape">
   <g id="id18">
    <rect class="BoundingBox" stroke="none" fill="none" x="3985" y="2310" width="1577" height="123"/>
    <path fill="rgb(175,208,149)" stroke="none" d="M 4006,2311 L 4006,2311 C 4002,2311 3999,2312 3996,2314 3993,2315 3990,2318 3989,2321 3987,2324 3986,2327 3986,2331 L 3986,2411 3986,2411 C 3986,2415 3987,2418 3989,2421 3990,2424 3993,2427 3996,2428 3999,2430 4002,2431 4006,2431 L 5540,2431 5540,2431 C 5544,2431 5547,2430 5550,2428 5553,2427 5556,2424 5557,2421 5559,2418 5560,2415 5560,2411 L 5560,2331 5560,2331 5560,2331 C 5560,2327 5559,2324 5557,2321 5556,2318 5553,2315 5550,2314 5547,2312 5544,2311 5540,2311 L 4006,2311 Z"/>
    <path fill="none" stroke="rgb(63,175,70)" d="M 4006,2311 L 4006,2311 C 4002,2311 3999,2312 3996,2314 3993,2315 3990,2318 3989,2321 3987,2324 3986,2327 3986,2331 L 3986,2411 3986,2411 C 3986,2415 3987,2418 3989,2421 3990,2424 3993,2427 3996,2428 3999,2430 4002,2431 4006,2431 L 5540,2431 5540,2431 C 5544,2431 5547,2430 5550,2428 5553,2427 5556,2424 5557,2421 5559,2418 5560,2415 5560,2411 L 5560,2331 5560,2331 5560,2331 C 5560,2327 5559,2324 5557,2321 5556,2318 5553,2315 5550,2314 5547,2312 5544,2311 5540,2311 L 4006,2311 Z"/>
   </g>
  </g>
  <g class="com.sun.star.drawing.CustomShape">
   <g id="id19">
    <rect class="BoundingBox" stroke="none" fill="none" x="2744" y="3890" width="2884" height="131"/>
    <path fill="rgb(153,153,153)" stroke="none" d="M 2769,3895 L 2769,3895 C 2765,3895 2762,3896 2759,3898 2756,3899 2753,3902 2752,3905 2750,3908 2749,3911 2749,3915 L 2749,3995 2749,3995 C 2749,3999 2750,4002 2752,4005 2753,4008 2756,4011 2759,4012 2762,4014 2765,4015 2769,4015 L 5602,4015 5602,4015 C 5606,4015 5609,4014 5612,4012 5615,4011 5618,4008 5619,4005 5621,4002 5622,3999 5622,3995 L 5622,3915 5622,3915 5622,3915 C 5622,3911 5621,3908 5619,3905 5618,3902 5615,3899 5612,3898 5609,3896 5606,3895 5602,3895 L 2769,3895 Z"/>
    <path fill="none" stroke="rgb(102,102,102)" stroke-width="10" stroke-linejoin="round" d="M 2769,3895 L 2769,3895 C 2765,3895 2762,3896 2759,3898 2756,3899 2753,3902 2752,3905 2750,3908 2749,3911 2749,3915 L 2749,3995 2749,3995 C 2749,3999 2750,4002 2752,4005 2753,4008 2756,4011 2759,4012 2762,4014 2765,4015 2769,4015 L 5602,4015 5602,4015 C 5606,4015 5609,4014 5612,4012 5615,4011 5618,4008 5619,4005 5621,4002 5622,3999 5622,3995 L 5622,3915 5622,3915 5622,3915 C 5622,3911 5621,3908 5619,3905 5618,3902 5615,3899 5612,3898 5609,3896 5606,3895 5602,3895 L 2769,3895 Z"/>
   </g>
  </g>
  <g class="com.sun.star.drawing.CustomShape">
   <g id="id20">
    <rect class="BoundingBox" stroke="none" fill="none" x="2823" y="2538" width="851" height="212"/>
    <path fill="rgb(142,134,174)" stroke="none" d="M 2858,2539 L 2859,2539 C 2853,2539 2847,2541 2841,2544 2836,2547 2832,2551 2829,2556 2826,2562 2824,2568 2824,2574 L 2824,2713 2824,2713 C 2824,2719 2826,2725 2829,2731 2832,2736 2836,2740 2841,2743 2847,2746 2853,2748 2859,2748 L 3637,2748 3637,2748 C 3643,2748 3649,2746 3655,2743 3660,2740 3664,2736 3667,2731 3670,2725 3672,2719 3672,2713 L 3672,2573 3672,2574 3672,2574 C 3672,2568 3670,2562 3667,2556 3664,2551 3660,2547 3655,2544 3649,2541 3643,2539 3637,2539 L 2858,2539 Z"/>
    <path fill="none" stroke="rgb(52,101,164)" d="M 2858,2539 L 2859,2539 C 2853,2539 2847,2541 2841,2544 2836,2547 2832,2551 2829,2556 2826,2562 2824,2568 2824,2574 L 2824,2713 2824,2713 C 2824,2719 2826,2725 2829,2731 2832,2736 2836,2740 2841,2743 2847,2746 2853,2748 2859,2748 L 3637,2748 3637,2748 C 3643,2748 3649,2746 3655,2743 3660,2740 3664,2736 3667,2731 3670,2725 3672,2719 3672,2713 L 3672,2573 3672,2574 3672,2574 C 3672,2568 3670,2562 3667,2556 3664,2551 3660,2547 3655,2544 3649,2541 3643,2539 3637,2539 L 2858,2539 Z"/>
   </g>
  </g>
  <g class="com.sun.star.drawing.CustomShape">
   <g id="id21">
    <rect class="BoundingBox" stroke="none" fill="none" x="2824" y="2739" width="1650" height="408"/>
    <path fill="rgb(142,134,174)" stroke="none" d="M 2892,2740 L 2893,2740 C 2881,2740 2869,2743 2859,2749 2848,2755 2840,2763 2834,2774 2828,2784 2825,2796 2825,2808 L 2825,3077 2825,3078 C 2825,3089 2828,3101 2834,3111 2840,3122 2848,3130 2859,3136 2869,3142 2881,3145 2893,3145 L 4404,3145 4404,3145 C 4416,3145 4428,3142 4438,3136 4449,3130 4457,3122 4463,3111 4469,3101 4472,3089 4472,3078 L 4472,2807 4472,2808 4472,2808 C 4472,2796 4469,2784 4463,2774 4457,2763 4449,2755 4438,2749 4428,2743 4416,2740 4404,2740 L 2892,2740 Z"/>
    <path fill="none" stroke="rgb(52,101,164)" d="M 2892,2740 L 2893,2740 C 2881,2740 2869,2743 2859,2749 2848,2755 2840,2763 2834,2774 2828,2784 2825,2796 2825,2808 L 2825,3077 2825,3078 C 2825,3089 2828,3101 2834,3111 2840,3122 2848,3130 2859,3136 2869,3142 2881,3145 2893,3145 L 4404,3145 4404,3145 C 4416,3145 4428,3142 4438,3136 4449,3130 4457,3122 4463,3111 4469,3101 4472,3089 4472,3078 L 4472,2807 4472,2808 4472,2808 C 4472,2796 4469,2784 4463,2774 4457,2763 4449,2755 4438,2749 4428,2743 4416,2740 4404,2740 L 2892,2740 Z"/>
   </g>
  </g>
  <g class="com.sun.star.drawing.CustomShape">
   <g id="id22">
    <rect class="BoundingBox" stroke="none" fill="none" x="2824" y="3140" width="1114" height="382"/>
    <path fill="rgb(142,134,174)" stroke="none" d="M 2888,3141 L 2888,3141 C 2877,3141 2866,3144 2857,3149 2847,3155 2839,3163 2833,3173 2828,3182 2825,3193 2825,3204 L 2825,3456 2825,3457 C 2825,3468 2828,3479 2833,3488 2839,3498 2847,3506 2857,3512 2866,3517 2877,3520 2888,3520 L 3872,3520 3873,3520 C 3884,3520 3895,3517 3904,3512 3914,3506 3922,3498 3928,3488 3933,3479 3936,3468 3936,3457 L 3936,3204 3936,3204 3936,3204 C 3936,3193 3933,3182 3928,3173 3922,3163 3914,3155 3904,3149 3895,3144 3884,3141 3873,3141 L 2888,3141 Z"/>
    <path fill="none" stroke="rgb(52,101,164)" d="M 2888,3141 L 2888,3141 C 2877,3141 2866,3144 2857,3149 2847,3155 2839,3163 2833,3173 2828,3182 2825,3193 2825,3204 L 2825,3456 2825,3457 C 2825,3468 2828,3479 2833,3488 2839,3498 2847,3506 2857,3512 2866,3517 2877,3520 2888,3520 L 3872,3520 3873,3520 C 3884,3520 3895,3517 3904,3512 3914,3506 3922,3498 3928,3488 3933,3479 3936,3468 3936,3457 L 3936,3204 3936,3204 3936,3204 C 3936,3193 3933,3182 3928,3173 3922,3163 3914,3155 3904,3149 3895,3144 3884,3141 3873,3141 L 2888,3141 Z"/>
   </g>
  </g>
  <g class="com.sun.star.drawing.CustomShape">
   <g id="id23">
    <rect class="BoundingBox" stroke="none" fill="none" x="4168" y="2431" width="1403" height="123"/>
    <path fill="rgb(175,208,149)" stroke="none" d="M 4189,2432 L 4189,2432 C 4185,2432 4182,2433 4179,2435 4176,2436 4173,2439 4172,2442 4170,2445 4169,2448 4169,2452 L 4169,2532 4169,2532 C 4169,2536 4170,2539 4172,2542 4173,2545 4176,2548 4179,2549 4182,2551 4185,2552 4189,2552 L 5549,2552 5549,2552 C 5553,2552 5556,2551 5559,2549 5562,2548 5565,2545 5566,2542 5568,2539 5569,2536 5569,2532 L 5569,2452 5569,2452 5569,2452 C 5569,2448 5568,2445 5566,2442 5565,2439 5562,2436 5559,2435 5556,2433 5553,2432 5549,2432 L 4189,2432 Z"/>
    <path fill="none" stroke="rgb(63,175,70)" d="M 4189,2432 L 4189,2432 C 4185,2432 4182,2433 4179,2435 4176,2436 4173,2439 4172,2442 4170,2445 4169,2448 4169,2452 L 4169,2532 4169,2532 C 4169,2536 4170,2539 4172,2542 4173,2545 4176,2548 4179,2549 4182,2551 4185,2552 4189,2552 L 5549,2552 5549,2552 C 5553,2552 5556,2551 5559,2549 5562,2548 5565,2545 5566,2542 5568,2539 5569,2536 5569,2532 L 5569,2452 5569,2452 5569,2452 C 5569,2448 5568,2445 5566,2442 5565,2439 5562,2436 5559,2435 5556,2433 5553,2432 5549,2432 L 4189,2432 Z"/>
   </g>
  </g>
  <g class="com.sun.star.drawing.CustomShape">
   <g id="id24">
    <rect class="BoundingBox" stroke="none" fill="none" x="4168" y="3491" width="1403" height="315"/>
    <path fill="rgb(175,208,149)" stroke="none" d="M 4221,3492 L 4221,3492 C 4212,3492 4203,3494 4195,3499 4187,3504 4181,3510 4176,3518 4171,3526 4169,3535 4169,3544 L 4169,3752 4169,3752 C 4169,3761 4171,3770 4176,3778 4181,3786 4187,3792 4195,3797 4203,3802 4212,3804 4221,3804 L 5517,3804 5517,3804 C 5526,3804 5535,3802 5543,3797 5551,3792 5557,3786 5562,3778 5567,3770 5569,3761 5569,3752 L 5569,3544 5569,3544 5569,3544 C 5569,3535 5567,3526 5562,3518 5557,3510 5551,3504 5543,3499 5535,3494 5526,3492 5517,3492 L 4221,3492 Z"/>
    <path fill="none" stroke="rgb(63,175,70)" d="M 4221,3492 L 4221,3492 C 4212,3492 4203,3494 4195,3499 4187,3504 4181,3510 4176,3518 4171,3526 4169,3535 4169,3544 L 4169,3752 4169,3752 C 4169,3761 4171,3770 4176,3778 4181,3786 4187,3792 4195,3797 4203,3802 4212,3804 4221,3804 L 5517,3804 5517,3804 C 5526,3804 5535,3802 5543,3797 5551,3792 5557,3786 5562,3778 5567,3770 5569,3761 5569,3752 L 5569,3544 5569,3544 5569,3544 C 5569,3535 5567,3526 5562,3518 5557,3510 5551,3504 5543,3499 5535,3494 5526,3492 5517,3492 L 4221,3492 Z"/>
   </g>
  </g>
  <g class="com.sun.star.drawing.CustomShape">
   <g id="id25">
    <rect class="BoundingBox" stroke="none" fill="none" x="4297" y="3371" width="1278" height="123"/>
    <path fill="rgb(175,208,149)" stroke="none" d="M 4318,3372 L 4318,3372 C 4314,3372 4311,3373 4308,3375 4305,3376 4302,3379 4301,3382 4299,3385 4298,3388 4298,3392 L 4298,3472 4298,3472 C 4298,3476 4299,3479 4301,3482 4302,3485 4305,3488 4308,3489 4311,3491 4314,3492 4318,3492 L 5553,3492 5553,3492 C 5557,3492 5560,3491 5563,3489 5566,3488 5569,3485 5570,3482 5572,3479 5573,3476 5573,3472 L 5573,3392 5573,3392 5573,3392 C 5573,3388 5572,3385 5570,3382 5569,3379 5566,3376 5563,3375 5560,3373 5557,3372 5553,3372 L 4318,3372 Z"/>
    <path fill="none" stroke="rgb(63,175,70)" d="M 4318,3372 L 4318,3372 C 4314,3372 4311,3373 4308,3375 4305,3376 4302,3379 4301,3382 4299,3385 4298,3388 4298,3392 L 4298,3472 4298,3472 C 4298,3476 4299,3479 4301,3482 4302,3485 4305,3488 4308,3489 4311,3491 4314,3492 4318,3492 L 5553,3492 5553,3492 C 5557,3492 5560,3491 5563,3489 5566,3488 5569,3485 5570,3482 5572,3479 5573,3476 5573,3472 L 5573,3392 5573,3392 5573,3392 C 5573,3388 5572,3385 5570,3382 5569,3379 5566,3376 5563,3375 5560,3373 5557,3372 5553,3372 L 4318,3372 Z"/>
   </g>
  </g>
  <g class="com.sun.star.drawing.CustomShape">
   <g id="id26">
    <rect class="BoundingBox" stroke="none" fill="none" x="2752" y="1586" width="2525" height="236"/>
    <path fill="rgb(128,128,128)" stroke="none" d="M 4014,1820 L 2753,1820 2753,1587 5275,1587 5275,1820 4014,1820 Z"/>
    <path fill="none" stroke="rgb(52,101,164)" d="M 4014,1820 L 2753,1820 2753,1587 5275,1587 5275,1820 4014,1820 Z"/>
   </g>
  </g>
  <g class="com.sun.star.drawing.CustomShape">
   <g id="id27">
    <rect class="BoundingBox" stroke="none" fill="none" x="2352" y="4930" width="238" height="234"/>
    <path fill="rgb(114,159,207)" stroke="none" d="M 2471,5162 L 2353,5162 2353,4931 2588,4931 2588,5162 2471,5162 Z"/>
    <path fill="none" stroke="rgb(52,101,164)" d="M 2471,5162 L 2353,5162 2353,4931 2588,4931 2588,5162 2471,5162 Z"/>
   </g>
  </g>
  <g class="com.sun.star.drawing.CustomShape">
   <g id="id28">
    <rect class="BoundingBox" stroke="none" fill="none" x="2652" y="4930" width="238" height="234"/>
    <path fill="rgb(114,159,207)" stroke="none" d="M 2771,5162 L 2653,5162 2653,4931 2888,4931 2888,5162 2771,5162 Z"/>
    <path fill="none" stroke="rgb(52,101,164)" d="M 2771,5162 L 2653,5162 2653,4931 2888,4931 2888,5162 2771,5162 Z"/>
   </g>
  </g>
  <g class="com.sun.star.drawing.CustomShape">
   <g id="id29">
    <rect class="BoundingBox" stroke="none" fill="none" x="2952" y="4930" width="238" height="234"/>
    <path fill="rgb(114,159,207)" stroke="none" d="M 3071,5162 L 2953,5162 2953,4931 3188,4931 3188,5162 3071,5162 Z"/>
    <path fill="none" stroke="rgb(52,101,164)" d="M 3071,5162 L 2953,5162 2953,4931 3188,4931 3188,5162 3071,5162 Z"/>
   </g>
  </g>
  <g class="com.sun.star.drawing.CustomShape">
   <g id="id30">
    <rect class="BoundingBox" stroke="none" fill="none" x="3252" y="4930" width="238" height="234"/>
    <path fill="rgb(114,159,207)" stroke="none" d="M 3371,5162 L 3253,5162 3253,4931 3488,4931 3488,5162 3371,5162 Z"/>
    <path fill="none" stroke="rgb(52,101,164)" d="M 3371,5162 L 3253,5162 3253,4931 3488,4931 3488,5162 3371,5162 Z"/>
   </g>
  </g>
  <g class="com.sun.star.drawing.CustomShape">
   <g id="id31">
    <rect class="BoundingBox" stroke="none" fill="none" x="3552" y="4930" width="238" height="234"/>
    <path fill="rgb(114,159,207)" stroke="none" d="M 3671,5162 L 3553,5162 3553,4931 3788,4931 3788,5162 3671,5162 Z"/>
    <path fill="none" stroke="rgb(52,101,164)" d="M 3671,5162 L 3553,5162 3553,4931 3788,4931 3788,5162 3671,5162 Z"/>
   </g>
  </g>
  <g class="com.sun.star.drawing.CustomShape">
   <g id="id32">
    <rect class="BoundingBox" stroke="none" fill="none" x="3219" y="4905" width="304" height="287"/>
    <path fill="rgb(89,131,176)" fill-opacity="0.502" stroke="none" d="M 3371,5190 L 3220,5190 3220,4906 3521,4906 3521,5190 3371,5190 Z"/>
    <path fill="none" stroke="rgb(52,101,164)" d="M 3371,5190 L 3220,5190 3220,4906 3521,4906 3521,5190 3371,5190 Z"/>
   </g>
  </g>
  <g class="com.sun.star.drawing.CustomShape">
   <g id="id33">
    <rect class="BoundingBox" stroke="none" fill="none" x="7722" y="4932" width="475" height="237"/>
    <path fill="rgb(153,153,153)" stroke="none" d="M 7959,5167 L 7723,5167 7723,4933 8195,4933 8195,5167 7959,5167 Z"/>
    <path fill="none" stroke="rgb(204,204,204)" d="M 7959,5167 L 7723,5167 7723,4933 8195,4933 8195,5167 7959,5167 Z"/>
   </g>
  </g>
  <g class="com.sun.star.drawing.CustomShape">
   <g id="id34">
    <rect class="BoundingBox" stroke="none" fill="none" x="7355" y="4959" width="278" height="184"/>
    <path fill="rgb(153,153,153)" stroke="none" d="M 7494,5141 L 7356,4960 7631,4960 7494,5141 Z"/>
    <path fill="none" stroke="rgb(204,204,204)" d="M 7494,5141 L 7356,4960 7631,4960 7494,5141 Z"/>
   </g>
  </g>
  <g class="com.sun.star.drawing.CustomShape">
   <g id="id35">
    <rect class="BoundingBox" stroke="none" fill="none" x="6183" y="2256" width="1640" height="2422"/>
    <path fill="rgb(221,221,221)" stroke="none" d="M 7003,4676 L 6184,4676 6184,2257 7821,2257 7821,4676 7003,4676 Z"/>
    <path fill="none" stroke="rgb(221,221,221)" d="M 7003,4676 L 6184,4676 6184,2257 7821,2257 7821,4676 7003,4676 Z"/>
   </g>
  </g>
  <g class="com.sun.star.drawing.CustomShape">
   <g id="id36">
    <rect class="BoundingBox" stroke="none" fill="none" x="7474" y="2256" width="350" height="237"/>
    <path fill="rgb(159,2,2)" stroke="none" d="M 7649,2491 L 7475,2491 7475,2257 7822,2257 7822,2491 7649,2491 Z"/>
    <path fill="none" stroke="rgb(159,2,2)" d="M 7649,2491 L 7475,2491 7475,2257 7822,2257 7822,2491 7649,2491 Z"/>
   </g>
  </g>
  <g class="com.sun.star.drawing.CustomShape">
   <g id="id37">
    <rect class="BoundingBox" stroke="none" fill="none" x="6179" y="2974" width="456" height="329"/>
    <path fill="rgb(128,128,128)" stroke="none" d="M 6234,2975 L 6234,2975 C 6225,2975 6215,2978 6207,2982 6199,2987 6192,2994 6187,3002 6183,3010 6180,3020 6180,3029 L 6180,3246 6180,3247 C 6180,3256 6183,3266 6187,3274 6192,3282 6199,3289 6207,3294 6215,3298 6225,3301 6234,3301 L 6578,3301 6579,3301 C 6588,3301 6598,3298 6606,3294 6614,3289 6621,3282 6626,3274 6630,3266 6633,3256 6633,3247 L 6633,3029 6633,3029 6633,3029 C 6633,3020 6630,3010 6626,3002 6621,2994 6614,2987 6606,2982 6598,2978 6588,2975 6579,2975 L 6234,2975 Z"/>
    <path fill="none" stroke="rgb(128,128,128)" d="M 6234,2975 L 6234,2975 C 6225,2975 6215,2978 6207,2982 6199,2987 6192,2994 6187,3002 6183,3010 6180,3020 6180,3029 L 6180,3246 6180,3247 C 6180,3256 6183,3266 6187,3274 6192,3282 6199,3289 6207,3294 6215,3298 6225,3301 6234,3301 L 6578,3301 6579,3301 C 6588,3301 6598,3298 6606,3294 6614,3289 6621,3282 6626,3274 6630,3266 6633,3256 6633,3247 L 6633,3029 6633,3029 6633,3029 C 6633,3020 6630,3010 6626,3002 6621,2994 6614,2987 6606,2982 6598,2978 6588,2975 6579,2975 L 6234,2975 Z"/>
   </g>
  </g>
  <g class="com.sun.star.drawing.CustomShape">
   <g id="id38">
    <rect class="BoundingBox" stroke="none" fill="none" x="6641" y="2974" width="456" height="329"/>
    <path fill="rgb(128,128,128)" stroke="none" d="M 6696,2975 L 6696,2975 C 6687,2975 6677,2978 6669,2982 6661,2987 6654,2994 6649,3002 6645,3010 6642,3020 6642,3029 L 6642,3246 6642,3247 C 6642,3256 6645,3266 6649,3274 6654,3282 6661,3289 6669,3294 6677,3298 6687,3301 6696,3301 L 7040,3301 7041,3301 C 7050,3301 7060,3298 7068,3294 7076,3289 7083,3282 7088,3274 7092,3266 7095,3256 7095,3247 L 7095,3029 7095,3029 7095,3029 C 7095,3020 7092,3010 7088,3002 7083,2994 7076,2987 7068,2982 7060,2978 7050,2975 7041,2975 L 6696,2975 Z"/>
    <path fill="none" stroke="rgb(128,128,128)" d="M 6696,2975 L 6696,2975 C 6687,2975 6677,2978 6669,2982 6661,2987 6654,2994 6649,3002 6645,3010 6642,3020 6642,3029 L 6642,3246 6642,3247 C 6642,3256 6645,3266 6649,3274 6654,3282 6661,3289 6669,3294 6677,3298 6687,3301 6696,3301 L 7040,3301 7041,3301 C 7050,3301 7060,3298 7068,3294 7076,3289 7083,3282 7088,3274 7092,3266 7095,3256 7095,3247 L 7095,3029 7095,3029 7095,3029 C 7095,3020 7092,3010 7088,3002 7083,2994 7076,2987 7068,2982 7060,2978 7050,2975 7041,2975 L 6696,2975 Z"/>
   </g>
  </g>
  <g class="com.sun.star.drawing.CustomShape">
   <g id="id39">
    <rect class="BoundingBox" stroke="none" fill="none" x="7104" y="2973" width="456" height="329"/>
    <path fill="rgb(128,128,128)" stroke="none" d="M 7159,2974 L 7159,2974 C 7150,2974 7140,2977 7132,2981 7124,2986 7117,2993 7112,3001 7108,3009 7105,3019 7105,3028 L 7105,3245 7105,3246 C 7105,3255 7108,3265 7112,3273 7117,3281 7124,3288 7132,3293 7140,3297 7150,3300 7159,3300 L 7503,3300 7504,3300 C 7513,3300 7523,3297 7531,3293 7539,3288 7546,3281 7551,3273 7555,3265 7558,3255 7558,3246 L 7558,3028 7558,3028 7558,3028 C 7558,3019 7555,3009 7551,3001 7546,2993 7539,2986 7531,2981 7523,2977 7513,2974 7504,2974 L 7159,2974 Z"/>
    <path fill="none" stroke="rgb(128,128,128)" d="M 7159,2974 L 7159,2974 C 7150,2974 7140,2977 7132,2981 7124,2986 7117,2993 7112,3001 7108,3009 7105,3019 7105,3028 L 7105,3245 7105,3246 C 7105,3255 7108,3265 7112,3273 7117,3281 7124,3288 7132,3293 7140,3297 7150,3300 7159,3300 L 7503,3300 7504,3300 C 7513,3300 7523,3297 7531,3293 7539,3288 7546,3281 7551,3273 7555,3265 7558,3255 7558,3246 L 7558,3028 7558,3028 7558,3028 C 7558,3019 7555,3009 7551,3001 7546,2993 7539,2986 7531,2981 7523,2977 7513,2974 7504,2974 L 7159,2974 Z"/>
   </g>
  </g>
  <g class="com.sun.star.drawing.CustomShape">
   <g id="id40">
    <rect class="BoundingBox" stroke="none" fill="none" x="6180" y="3316" width="456" height="329"/>
    <path fill="rgb(128,128,128)" stroke="none" d="M 6235,3317 L 6235,3317 C 6226,3317 6216,3320 6208,3324 6200,3329 6193,3336 6188,3344 6184,3352 6181,3362 6181,3371 L 6181,3588 6181,3589 C 6181,3598 6184,3608 6188,3616 6193,3624 6200,3631 6208,3636 6216,3640 6226,3643 6235,3643 L 6579,3643 6580,3643 C 6589,3643 6599,3640 6607,3636 6615,3631 6622,3624 6627,3616 6631,3608 6634,3598 6634,3589 L 6634,3371 6634,3371 6634,3371 C 6634,3362 6631,3352 6627,3344 6622,3336 6615,3329 6607,3324 6599,3320 6589,3317 6580,3317 L 6235,3317 Z"/>
    <path fill="none" stroke="rgb(128,128,128)" d="M 6235,3317 L 6235,3317 C 6226,3317 6216,3320 6208,3324 6200,3329 6193,3336 6188,3344 6184,3352 6181,3362 6181,3371 L 6181,3588 6181,3589 C 6181,3598 6184,3608 6188,3616 6193,3624 6200,3631 6208,3636 6216,3640 6226,3643 6235,3643 L 6579,3643 6580,3643 C 6589,3643 6599,3640 6607,3636 6615,3631 6622,3624 6627,3616 6631,3608 6634,3598 6634,3589 L 6634,3371 6634,3371 6634,3371 C 6634,3362 6631,3352 6627,3344 6622,3336 6615,3329 6607,3324 6599,3320 6589,3317 6580,3317 L 6235,3317 Z"/>
   </g>
  </g>
  <g class="com.sun.star.drawing.CustomShape">
   <g id="id41">
    <rect class="BoundingBox" stroke="none" fill="none" x="6642" y="3316" width="456" height="329"/>
    <path fill="rgb(128,128,128)" stroke="none" d="M 6697,3317 L 6697,3317 C 6688,3317 6678,3320 6670,3324 6662,3329 6655,3336 6650,3344 6646,3352 6643,3362 6643,3371 L 6643,3588 6643,3589 C 6643,3598 6646,3608 6650,3616 6655,3624 6662,3631 6670,3636 6678,3640 6688,3643 6697,3643 L 7041,3643 7042,3643 C 7051,3643 7061,3640 7069,3636 7077,3631 7084,3624 7089,3616 7093,3608 7096,3598 7096,3589 L 7096,3371 7096,3371 7096,3371 C 7096,3362 7093,3352 7089,3344 7084,3336 7077,3329 7069,3324 7061,3320 7051,3317 7042,3317 L 6697,3317 Z"/>
    <path fill="none" stroke="rgb(128,128,128)" d="M 6697,3317 L 6697,3317 C 6688,3317 6678,3320 6670,3324 6662,3329 6655,3336 6650,3344 6646,3352 6643,3362 6643,3371 L 6643,3588 6643,3589 C 6643,3598 6646,3608 6650,3616 6655,3624 6662,3631 6670,3636 6678,3640 6688,3643 6697,3643 L 7041,3643 7042,3643 C 7051,3643 7061,3640 7069,3636 7077,3631 7084,3624 7089,3616 7093,3608 7096,3598 7096,3589 L 7096,3371 7096,3371 7096,3371 C 7096,3362 7093,3352 7089,3344 7084,3336 7077,3329 7069,3324 7061,3320 7051,3317 7042,3317 L 6697,3317 Z"/>
   </g>
  </g>
  <g class="com.sun.star.drawing.CustomShape">
   <g id="id42">
    <rect class="BoundingBox" stroke="none" fill="none" x="7105" y="3315" width="456" height="329"/>
    <path fill="rgb(128,128,128)" stroke="none" d="M 7160,3316 L 7160,3316 C 7151,3316 7141,3319 7133,3323 7125,3328 7118,3335 7113,3343 7109,3351 7106,3361 7106,3370 L 7106,3587 7106,3588 C 7106,3597 7109,3607 7113,3615 7118,3623 7125,3630 7133,3635 7141,3639 7151,3642 7160,3642 L 7504,3642 7505,3642 C 7514,3642 7524,3639 7532,3635 7540,3630 7547,3623 7552,3615 7556,3607 7559,3597 7559,3588 L 7559,3370 7559,3370 7559,3370 C 7559,3361 7556,3351 7552,3343 7547,3335 7540,3328 7532,3323 7524,3319 7514,3316 7505,3316 L 7160,3316 Z"/>
    <path fill="none" stroke="rgb(128,128,128)" d="M 7160,3316 L 7160,3316 C 7151,3316 7141,3319 7133,3323 7125,3328 7118,3335 7113,3343 7109,3351 7106,3361 7106,3370 L 7106,3587 7106,3588 C 7106,3597 7109,3607 7113,3615 7118,3623 7125,3630 7133,3635 7141,3639 7151,3642 7160,3642 L 7504,3642 7505,3642 C 7514,3642 7524,3639 7532,3635 7540,3630 7547,3623 7552,3615 7556,3607 7559,3597 7559,3588 L 7559,3370 7559,3370 7559,3370 C 7559,3361 7556,3351 7552,3343 7547,3335 7540,3328 7532,3323 7524,3319 7514,3316 7505,3316 L 7160,3316 Z"/>
   </g>
  </g>
  <g class="com.sun.star.drawing.CustomShape">
   <g id="id43">
    <rect class="BoundingBox" stroke="none" fill="none" x="6180" y="3665" width="456" height="329"/>
    <path fill="rgb(128,128,128)" stroke="none" d="M 6235,3666 L 6235,3666 C 6226,3666 6216,3669 6208,3673 6200,3678 6193,3685 6188,3693 6184,3701 6181,3711 6181,3720 L 6181,3937 6181,3938 C 6181,3947 6184,3957 6188,3965 6193,3973 6200,3980 6208,3985 6216,3989 6226,3992 6235,3992 L 6579,3992 6580,3992 C 6589,3992 6599,3989 6607,3985 6615,3980 6622,3973 6627,3965 6631,3957 6634,3947 6634,3938 L 6634,3720 6634,3720 6634,3720 C 6634,3711 6631,3701 6627,3693 6622,3685 6615,3678 6607,3673 6599,3669 6589,3666 6580,3666 L 6235,3666 Z"/>
    <path fill="none" stroke="rgb(128,128,128)" d="M 6235,3666 L 6235,3666 C 6226,3666 6216,3669 6208,3673 6200,3678 6193,3685 6188,3693 6184,3701 6181,3711 6181,3720 L 6181,3937 6181,3938 C 6181,3947 6184,3957 6188,3965 6193,3973 6200,3980 6208,3985 6216,3989 6226,3992 6235,3992 L 6579,3992 6580,3992 C 6589,3992 6599,3989 6607,3985 6615,3980 6622,3973 6627,3965 6631,3957 6634,3947 6634,3938 L 6634,3720 6634,3720 6634,3720 C 6634,3711 6631,3701 6627,3693 6622,3685 6615,3678 6607,3673 6599,3669 6589,3666 6580,3666 L 6235,3666 Z"/>
   </g>
  </g>
  <g class="com.sun.star.drawing.CustomShape">
   <g id="id44">
    <rect class="BoundingBox" stroke="none" fill="none" x="6642" y="3665" width="456" height="329"/>
    <path fill="rgb(128,128,128)" stroke="none" d="M 6697,3666 L 6697,3666 C 6688,3666 6678,3669 6670,3673 6662,3678 6655,3685 6650,3693 6646,3701 6643,3711 6643,3720 L 6643,3937 6643,3938 C 6643,3947 6646,3957 6650,3965 6655,3973 6662,3980 6670,3985 6678,3989 6688,3992 6697,3992 L 7041,3992 7042,3992 C 7051,3992 7061,3989 7069,3985 7077,3980 7084,3973 7089,3965 7093,3957 7096,3947 7096,3938 L 7096,3720 7096,3720 7096,3720 C 7096,3711 7093,3701 7089,3693 7084,3685 7077,3678 7069,3673 7061,3669 7051,3666 7042,3666 L 6697,3666 Z"/>
    <path fill="none" stroke="rgb(128,128,128)" d="M 6697,3666 L 6697,3666 C 6688,3666 6678,3669 6670,3673 6662,3678 6655,3685 6650,3693 6646,3701 6643,3711 6643,3720 L 6643,3937 6643,3938 C 6643,3947 6646,3957 6650,3965 6655,3973 6662,3980 6670,3985 6678,3989 6688,3992 6697,3992 L 7041,3992 7042,3992 C 7051,3992 7061,3989 7069,3985 7077,3980 7084,3973 7089,3965 7093,3957 7096,3947 7096,3938 L 7096,3720 7096,3720 7096,3720 C 7096,3711 7093,3701 7089,3693 7084,3685 7077,3678 7069,3673 7061,3669 7051,3666 7042,3666 L 6697,3666 Z"/>
   </g>
  </g>
  <g class="com.sun.star.drawing.CustomShape">
   <g id="id45">
    <rect class="BoundingBox" stroke="none" fill="none" x="7105" y="3664" width="456" height="329"/>
    <path fill="rgb(128,128,128)" stroke="none" d="M 7160,3665 L 7160,3665 C 7151,3665 7141,3668 7133,3672 7125,3677 7118,3684 7113,3692 7109,3700 7106,3710 7106,3719 L 7106,3936 7106,3937 C 7106,3946 7109,3956 7113,3964 7118,3972 7125,3979 7133,3984 7141,3988 7151,3991 7160,3991 L 7504,3991 7505,3991 C 7514,3991 7524,3988 7532,3984 7540,3979 7547,3972 7552,3964 7556,3956 7559,3946 7559,3937 L 7559,3719 7559,3719 7559,3719 C 7559,3710 7556,3700 7552,3692 7547,3684 7540,3677 7532,3672 7524,3668 7514,3665 7505,3665 L 7160,3665 Z"/>
    <path fill="none" stroke="rgb(128,128,128)" d="M 7160,3665 L 7160,3665 C 7151,3665 7141,3668 7133,3672 7125,3677 7118,3684 7113,3692 7109,3700 7106,3710 7106,3719 L 7106,3936 7106,3937 C 7106,3946 7109,3956 7113,3964 7118,3972 7125,3979 7133,3984 7141,3988 7151,3991 7160,3991 L 7504,3991 7505,3991 C 7514,3991 7524,3988 7532,3984 7540,3979 7547,3972 7552,3964 7556,3956 7559,3946 7559,3937 L 7559,3719 7559,3719 7559,3719 C 7559,3710 7556,3700 7552,3692 7547,3684 7540,3677 7532,3672 7524,3668 7514,3665 7505,3665 L 7160,3665 Z"/>
   </g>
  </g>
  <g class="com.sun.star.drawing.CustomShape">
   <g id="id46">
    <rect class="BoundingBox" stroke="none" fill="none" x="6181" y="4007" width="456" height="329"/>
    <path fill="rgb(128,128,128)" stroke="none" d="M 6236,4008 L 6236,4008 C 6227,4008 6217,4011 6209,4015 6201,4020 6194,4027 6189,4035 6185,4043 6182,4053 6182,4062 L 6182,4279 6182,4280 C 6182,4289 6185,4299 6189,4307 6194,4315 6201,4322 6209,4327 6217,4331 6227,4334 6236,4334 L 6580,4334 6581,4334 C 6590,4334 6600,4331 6608,4327 6616,4322 6623,4315 6628,4307 6632,4299 6635,4289 6635,4280 L 6635,4062 6635,4062 6635,4062 C 6635,4053 6632,4043 6628,4035 6623,4027 6616,4020 6608,4015 6600,4011 6590,4008 6581,4008 L 6236,4008 Z"/>
    <path fill="none" stroke="rgb(128,128,128)" d="M 6236,4008 L 6236,4008 C 6227,4008 6217,4011 6209,4015 6201,4020 6194,4027 6189,4035 6185,4043 6182,4053 6182,4062 L 6182,4279 6182,4280 C 6182,4289 6185,4299 6189,4307 6194,4315 6201,4322 6209,4327 6217,4331 6227,4334 6236,4334 L 6580,4334 6581,4334 C 6590,4334 6600,4331 6608,4327 6616,4322 6623,4315 6628,4307 6632,4299 6635,4289 6635,4280 L 6635,4062 6635,4062 6635,4062 C 6635,4053 6632,4043 6628,4035 6623,4027 6616,4020 6608,4015 6600,4011 6590,4008 6581,4008 L 6236,4008 Z"/>
   </g>
  </g>
  <g class="com.sun.star.drawing.CustomShape">
   <g id="id47">
    <rect class="BoundingBox" stroke="none" fill="none" x="6643" y="4007" width="456" height="329"/>
    <path fill="rgb(128,128,128)" stroke="none" d="M 6698,4008 L 6698,4008 C 6689,4008 6679,4011 6671,4015 6663,4020 6656,4027 6651,4035 6647,4043 6644,4053 6644,4062 L 6644,4279 6644,4280 C 6644,4289 6647,4299 6651,4307 6656,4315 6663,4322 6671,4327 6679,4331 6689,4334 6698,4334 L 7042,4334 7043,4334 C 7052,4334 7062,4331 7070,4327 7078,4322 7085,4315 7090,4307 7094,4299 7097,4289 7097,4280 L 7097,4062 7097,4062 7097,4062 C 7097,4053 7094,4043 7090,4035 7085,4027 7078,4020 7070,4015 7062,4011 7052,4008 7043,4008 L 6698,4008 Z"/>
    <path fill="none" stroke="rgb(128,128,128)" d="M 6698,4008 L 6698,4008 C 6689,4008 6679,4011 6671,4015 6663,4020 6656,4027 6651,4035 6647,4043 6644,4053 6644,4062 L 6644,4279 6644,4280 C 6644,4289 6647,4299 6651,4307 6656,4315 6663,4322 6671,4327 6679,4331 6689,4334 6698,4334 L 7042,4334 7043,4334 C 7052,4334 7062,4331 7070,4327 7078,4322 7085,4315 7090,4307 7094,4299 7097,4289 7097,4280 L 7097,4062 7097,4062 7097,4062 C 7097,4053 7094,4043 7090,4035 7085,4027 7078,4020 7070,4015 7062,4011 7052,4008 7043,4008 L 6698,4008 Z"/>
   </g>
  </g>
  <g class="com.sun.star.drawing.CustomShape">
   <g id="id48">
    <rect class="BoundingBox" stroke="none" fill="none" x="7106" y="4006" width="456" height="329"/>
    <path fill="rgb(128,128,128)" stroke="none" d="M 7161,4007 L 7161,4007 C 7152,4007 7142,4010 7134,4014 7126,4019 7119,4026 7114,4034 7110,4042 7107,4052 7107,4061 L 7107,4278 7107,4279 C 7107,4288 7110,4298 7114,4306 7119,4314 7126,4321 7134,4326 7142,4330 7152,4333 7161,4333 L 7505,4333 7506,4333 C 7515,4333 7525,4330 7533,4326 7541,4321 7548,4314 7553,4306 7557,4298 7560,4288 7560,4279 L 7560,4061 7560,4061 7560,4061 C 7560,4052 7557,4042 7553,4034 7548,4026 7541,4019 7533,4014 7525,4010 7515,4007 7506,4007 L 7161,4007 Z"/>
    <path fill="none" stroke="rgb(128,128,128)" d="M 7161,4007 L 7161,4007 C 7152,4007 7142,4010 7134,4014 7126,4019 7119,4026 7114,4034 7110,4042 7107,4052 7107,4061 L 7107,4278 7107,4279 C 7107,4288 7110,4298 7114,4306 7119,4314 7126,4321 7134,4326 7142,4330 7152,4333 7161,4333 L 7505,4333 7506,4333 C 7515,4333 7525,4330 7533,4326 7541,4321 7548,4314 7553,4306 7557,4298 7560,4288 7560,4279 L 7560,4061 7560,4061 7560,4061 C 7560,4052 7557,4042 7553,4034 7548,4026 7541,4019 7533,4014 7525,4010 7515,4007 7506,4007 L 7161,4007 Z"/>
   </g>
  </g>
  <g class="com.sun.star.drawing.CustomShape">
   <g id="id49">
    <rect class="BoundingBox" stroke="none" fill="none" x="6182" y="4354" width="914" height="316"/>
    <path fill="rgb(128,128,128)" stroke="none" d="M 6235,4355 L 6235,4355 C 6226,4355 6217,4357 6209,4362 6201,4367 6195,4373 6190,4381 6185,4389 6183,4398 6183,4407 L 6183,4615 6183,4616 C 6183,4625 6185,4634 6190,4642 6195,4650 6201,4656 6209,4661 6217,4666 6226,4668 6235,4668 L 7041,4668 7042,4668 C 7051,4668 7060,4666 7068,4661 7076,4656 7082,4650 7087,4642 7092,4634 7094,4625 7094,4616 L 7094,4407 7094,4407 7094,4407 C 7094,4398 7092,4389 7087,4381 7082,4373 7076,4367 7068,4362 7060,4357 7051,4355 7042,4355 L 6235,4355 Z"/>
    <path fill="none" stroke="rgb(128,128,128)" d="M 6235,4355 L 6235,4355 C 6226,4355 6217,4357 6209,4362 6201,4367 6195,4373 6190,4381 6185,4389 6183,4398 6183,4407 L 6183,4615 6183,4616 C 6183,4625 6185,4634 6190,4642 6195,4650 6201,4656 6209,4661 6217,4666 6226,4668 6235,4668 L 7041,4668 7042,4668 C 7051,4668 7060,4666 7068,4661 7076,4656 7082,4650 7087,4642 7092,4634 7094,4625 7094,4616 L 7094,4407 7094,4407 7094,4407 C 7094,4398 7092,4389 7087,4381 7082,4373 7076,4367 7068,4362 7060,4357 7051,4355 7042,4355 L 6235,4355 Z"/>
   </g>
  </g>
  <g class="com.sun.star.drawing.CustomShape">
   <g id="id50">
    <rect class="BoundingBox" stroke="none" fill="none" x="7103" y="4343" width="456" height="329"/>
    <path fill="rgb(128,128,128)" stroke="none" d="M 7158,4344 L 7158,4344 C 7149,4344 7139,4347 7131,4351 7123,4356 7116,4363 7111,4371 7107,4379 7104,4389 7104,4398 L 7104,4615 7104,4616 C 7104,4625 7107,4635 7111,4643 7116,4651 7123,4658 7131,4663 7139,4667 7149,4670 7158,4670 L 7502,4670 7503,4670 C 7512,4670 7522,4667 7530,4663 7538,4658 7545,4651 7550,4643 7554,4635 7557,4625 7557,4616 L 7557,4398 7557,4398 7557,4398 C 7557,4389 7554,4379 7550,4371 7545,4363 7538,4356 7530,4351 7522,4347 7512,4344 7503,4344 L 7158,4344 Z"/>
    <path fill="none" stroke="rgb(128,128,128)" d="M 7158,4344 L 7158,4344 C 7149,4344 7139,4347 7131,4351 7123,4356 7116,4363 7111,4371 7107,4379 7104,4389 7104,4398 L 7104,4615 7104,4616 C 7104,4625 7107,4635 7111,4643 7116,4651 7123,4658 7131,4663 7139,4667 7149,4670 7158,4670 L 7502,4670 7503,4670 C 7512,4670 7522,4667 7530,4663 7538,4658 7545,4651 7550,4643 7554,4635 7557,4625 7557,4616 L 7557,4398 7557,4398 7557,4398 C 7557,4389 7554,4379 7550,4371 7545,4363 7538,4356 7530,4351 7522,4347 7512,4344 7503,4344 L 7158,4344 Z"/>
   </g>
  </g>
  <g class="com.sun.star.drawing.CustomShape">
   <g id="id51">
    <rect class="BoundingBox" stroke="none" fill="none" x="7569" y="3664" width="242" height="1001"/>
    <path fill="rgb(128,128,128)" stroke="none" d="M 7609,3665 L 7610,3665 C 7603,3665 7596,3667 7590,3670 7584,3674 7579,3679 7575,3685 7572,3691 7570,3698 7570,3705 L 7570,4623 7570,4623 C 7570,4630 7572,4637 7575,4643 7579,4649 7584,4654 7590,4658 7596,4661 7603,4663 7610,4663 L 7769,4663 7769,4663 C 7776,4663 7783,4661 7789,4658 7795,4654 7800,4649 7804,4643 7807,4637 7809,4630 7809,4623 L 7809,3704 7809,3705 7809,3705 C 7809,3698 7807,3691 7804,3685 7800,3679 7795,3674 7789,3670 7783,3667 7776,3665 7769,3665 L 7609,3665 Z"/>
    <path fill="none" stroke="rgb(128,128,128)" d="M 7609,3665 L 7610,3665 C 7603,3665 7596,3667 7590,3670 7584,3674 7579,3679 7575,3685 7572,3691 7570,3698 7570,3705 L 7570,4623 7570,4623 C 7570,4630 7572,4637 7575,4643 7579,4649 7584,4654 7590,4658 7596,4661 7603,4663 7610,4663 L 7769,4663 7769,4663 C 7776,4663 7783,4661 7789,4658 7795,4654 7800,4649 7804,4643 7807,4637 7809,4630 7809,4623 L 7809,3704 7809,3705 7809,3705 C 7809,3698 7807,3691 7804,3685 7800,3679 7795,3674 7789,3670 7783,3667 7776,3665 7769,3665 L 7609,3665 Z"/>
   </g>
  </g>
  <g class="com.sun.star.drawing.CustomShape">
   <g id="id52">
    <rect class="BoundingBox" stroke="none" fill="none" x="7570" y="2971" width="242" height="682"/>
    <path fill="rgb(128,128,128)" stroke="none" d="M 7610,2972 L 7611,2972 C 7604,2972 7597,2974 7591,2977 7585,2981 7580,2986 7576,2992 7573,2998 7571,3005 7571,3012 L 7571,3611 7571,3611 C 7571,3618 7573,3625 7576,3631 7580,3637 7585,3642 7591,3646 7597,3649 7604,3651 7611,3651 L 7770,3651 7770,3651 C 7777,3651 7784,3649 7790,3646 7796,3642 7801,3637 7805,3631 7808,3625 7810,3618 7810,3611 L 7810,3011 7810,3012 7810,3012 C 7810,3005 7808,2998 7805,2992 7801,2986 7796,2981 7790,2977 7784,2974 7777,2972 7770,2972 L 7610,2972 Z"/>
    <path fill="none" stroke="rgb(128,128,128)" d="M 7610,2972 L 7611,2972 C 7604,2972 7597,2974 7591,2977 7585,2981 7580,2986 7576,2992 7573,2998 7571,3005 7571,3012 L 7571,3611 7571,3611 C 7571,3618 7573,3625 7576,3631 7580,3637 7585,3642 7591,3646 7597,3649 7604,3651 7611,3651 L 7770,3651 7770,3651 C 7777,3651 7784,3649 7790,3646 7796,3642 7801,3637 7805,3631 7808,3625 7810,3618 7810,3611 L 7810,3011 7810,3012 7810,3012 C 7810,3005 7808,2998 7805,2992 7801,2986 7796,2981 7790,2977 7784,2974 7777,2972 7770,2972 L 7610,2972 Z"/>
   </g>
  </g>
  <g class="com.sun.star.drawing.CustomShape">
   <g id="id53">
    <rect class="BoundingBox" stroke="none" fill="none" x="6184" y="2251" width="1291" height="698"/>
    <path fill="rgb(102,102,102)" stroke="none" d="M 6829,2947 L 6185,2947 6185,2252 7473,2252 7473,2947 6829,2947 Z"/>
    <path fill="none" stroke="rgb(102,102,102)" d="M 6829,2947 L 6185,2947 6185,2252 7473,2252 7473,2947 6829,2947 Z"/>
   </g>
  </g>
  <g class="com.sun.star.drawing.CustomShape">
   <g id="id54">
    <rect class="BoundingBox" stroke="none" fill="none" x="1495" y="469" width="396" height="314"/>
    <path fill="rgb(114,159,207)" stroke="none" d="M 1496,470 L 1889,470 1790,781 1594,781 1496,470 Z"/>
    <path fill="none" stroke="rgb(52,101,164)" d="M 1496,470 L 1889,470 1790,781 1594,781 1496,470 Z"/>
   </g>
  </g>
  <g class="com.sun.star.drawing.CustomShape">
   <g id="id55">
    <rect class="BoundingBox" stroke="none" fill="none" x="1431" y="1017" width="505" height="380"/>
    <path fill="rgb(114,159,207)" stroke="none" d="M 1432,1018 L 1934,1018 1934,1320 C 1735,1318 1742,1380 1562,1395 1498,1386 1474,1379 1432,1369 L 1432,1018 Z"/>
    <path fill="none" stroke="rgb(52,101,164)" d="M 1432,1018 L 1934,1018 1934,1320 C 1735,1318 1742,1380 1562,1395 1498,1386 1474,1379 1432,1369 L 1432,1018 Z"/>
   </g>
  </g>
  <g class="com.sun.star.drawing.CustomShape">
   <g id="id56">
    <rect class="BoundingBox" stroke="none" fill="none" x="1431" y="1518" width="505" height="380"/>
    <path fill="rgb(114,159,207)" stroke="none" d="M 1432,1519 L 1934,1519 1934,1821 C 1735,1819 1742,1881 1562,1896 1498,1887 1474,1880 1432,1870 L 1432,1519 Z"/>
    <path fill="none" stroke="rgb(52,101,164)" d="M 1432,1519 L 1934,1519 1934,1821 C 1735,1819 1742,1881 1562,1896 1498,1887 1474,1880 1432,1870 L 1432,1519 Z"/>
   </g>
  </g>
  <g class="com.sun.star.drawing.CustomShape">
   <g id="id57">
    <rect class="BoundingBox" stroke="none" fill="none" x="1431" y="2019" width="505" height="380"/>
    <path fill="rgb(114,159,207)" stroke="none" d="M 1432,2020 L 1934,2020 1934,2322 C 1735,2320 1742,2382 1562,2397 1498,2388 1474,2381 1432,2371 L 1432,2020 Z"/>
    <path fill="none" stroke="rgb(52,101,164)" d="M 1432,2020 L 1934,2020 1934,2322 C 1735,2320 1742,2382 1562,2397 1498,2388 1474,2381 1432,2371 L 1432,2020 Z"/>
   </g>
  </g>
  <g class="com.sun.star.drawing.CustomShape">
   <g id="id58">
    <rect class="BoundingBox" stroke="none" fill="none" x="1431" y="2520" width="505" height="380"/>
    <path fill="rgb(114,159,207)" stroke="none" d="M 1432,2521 L 1934,2521 1934,2823 C 1735,2821 1742,2883 1562,2898 1498,2889 1474,2882 1432,2872 L 1432,2521 Z"/>
    <path fill="none" stroke="rgb(52,101,164)" d="M 1432,2521 L 1934,2521 1934,2823 C 1735,2821 1742,2883 1562,2898 1498,2889 1474,2882 1432,2872 L 1432,2521 Z"/>
   </g>
  </g>
  <g class="com.sun.star.drawing.CustomShape">
   <g id="id59">
    <rect class="BoundingBox" stroke="none" fill="none" x="2031" y="1018" width="505" height="380"/>
    <path fill="rgb(114,159,207)" stroke="none" d="M 2032,1019 L 2534,1019 2534,1321 C 2335,1319 2342,1381 2162,1396 2098,1387 2074,1380 2032,1370 L 2032,1019 Z"/>
    <path fill="none" stroke="rgb(52,101,164)" d="M 2032,1019 L 2534,1019 2534,1321 C 2335,1319 2342,1381 2162,1396 2098,1387 2074,1380 2032,1370 L 2032,1019 Z"/>
   </g>
  </g>
  <g class="com.sun.star.drawing.CustomShape">
   <g id="id60">
    <rect class="BoundingBox" stroke="none" fill="none" x="2031" y="1519" width="505" height="380"/>
    <path fill="rgb(114,159,207)" stroke="none" d="M 2032,1520 L 2534,1520 2534,1822 C 2335,1820 2342,1882 2162,1897 2098,1888 2074,1881 2032,1871 L 2032,1520 Z"/>
    <path fill="none" stroke="rgb(52,101,164)" d="M 2032,1520 L 2534,1520 2534,1822 C 2335,1820 2342,1882 2162,1897 2098,1888 2074,1881 2032,1871 L 2032,1520 Z"/>
   </g>
  </g>
  <g class="com.sun.star.drawing.CustomShape">
   <g id="id61">
    <rect class="BoundingBox" stroke="none" fill="none" x="2035" y="462" width="505" height="380"/>
    <path fill="rgb(114,159,207)" stroke="none" d="M 2036,463 L 2538,463 2538,765 C 2339,763 2346,825 2166,840 2102,831 2078,824 2036,814 L 2036,463 Z"/>
    <path fill="none" stroke="rgb(52,101,164)" d="M 2036,463 L 2538,463 2538,765 C 2339,763 2346,825 2166,840 2102,831 2078,824 2036,814 L 2036,463 Z"/>
   </g>
  </g>
  <g class="com.sun.star.drawing.CustomShape">
   <g id="id62">
    <rect class="BoundingBox" stroke="none" fill="none" x="7401" y="5760" width="2235" height="1062"/>
    <path fill="rgb(153,153,153)" stroke="none" d="M 8518,6820 L 7402,6820 7402,5761 9634,5761 9634,6820 8518,6820 Z"/>
    <path fill="none" stroke="rgb(153,153,153)" d="M 8518,6820 L 7402,6820 7402,5761 9634,5761 9634,6820 8518,6820 Z"/>
   </g>
  </g>
 </g>
</svg>