<?xml version="1.0" encoding="UTF-8"?>
<!DOCTYPE svg PUBLIC "-//W3C//DTD SVG 1.1//EN" "http://www.w3.org/Graphics/SVG/1.1/DTD/svg11.dtd">
<svg version="1.2" width="210mm" height="297mm" viewBox="0 0 21000 29700" preserveAspectRatio="xMidYMid" fill-rule="evenodd" stroke-width="28.222" stroke-linejoin="round" xmlns="http://www.w3.org/2000/svg" xmlns:ooo="http://xml.openoffice.org/svg/export" xmlns:xlink="http://www.w3.org/1999/xlink" xmlns:presentation="http://sun.com/xmlns/staroffice/presentation" xmlns:smil="http://www.w3.org/2001/SMIL20/" xmlns:anim="urn:oasis:names:tc:opendocument:xmlns:animation:1.0" xmlns:svg="urn:oasis:names:tc:opendocument:xmlns:svg-compatible:1.0" xml:space="preserve">
 <defs class="ClipPathGroup">
  <clipPath id="presentation_clip_path" clipPathUnits="userSpaceOnUse">
   <rect x="0" y="0" width="21000" height="29700"/>
  </clipPath>
  <clipPath id="presentation_clip_path_shrink" clipPathUnits="userSpaceOnUse">
   <rect x="21" y="29" width="20958" height="29641"/>
  </clipPath>
 </defs>
 <defs class="TextShapeIndex">
  <g ooo:slide="id1" ooo:id-list="id3 id4 id5 id6 id7 id8 id9 id10 id11 id12 id13 id14 id15 id16 id17 id18 id19 id20 id21 id22 id23 id24 id25 id26 id27 id28 id29 id30 id31 id32 id33 id34 id35 id36 id37 id38 id39 id40 id41 id42 id43 id44 id45 id46 id47 id48 id49 id50 id51 id52 id53 id54 id55 id56 id57 id58 id59 id60 id61 id62"/>
 </defs>
 <defs class="EmbeddedBulletChars">
  <g id="bullet-char-template-57356" transform="scale(0.00048828125,-0.00048828125)">
   <path d="M 580,1141 L 1163,571 580,0 -4,571 580,1141 Z"/>
  </g>
  <g id="bullet-char-template-57354" transform="scale(0.00048828125,-0.00048828125)">
   <path d="M 8,1128 L 1137,1128 1137,0 8,0 8,1128 Z"/>
  </g>
  <g id="bullet-char-template-10146" transform="scale(0.00048828125,-0.00048828125)">
   <path d="M 174,0 L 602,739 174,1481 1456,739 174,0 Z M 1358,739 L 309,1346 659,739 1358,739 Z"/>
  </g>
  <g id="bullet-char-template-10132" transform="scale(0.00048828125,-0.00048828125)">
   <path d="M 2015,739 L 1276,0 717,0 1260,543 174,543 174,936 1260,936 717,1481 1274,1481 2015,739 Z"/>
  </g>
  <g id="bullet-char-template-10007" transform="scale(0.00048828125,-0.00048828125)">
   <path d="M 0,-2 C -7,14 -16,27 -25,37 L 356,567 C 262,823 215,952 215,954 215,979 228,992 255,992 264,992 276,990 289,987 310,991 331,999 354,1012 L 381,999 492,748 772,1049 836,1024 860,1049 C 881,1039 901,1025 922,1006 886,937 835,863 770,784 769,783 710,716 594,584 L 774,223 C 774,196 753,168 711,139 L 727,119 C 717,90 699,76 672,76 641,76 570,178 457,381 L 164,-76 C 142,-110 111,-127 72,-127 30,-127 9,-110 8,-76 1,-67 -2,-52 -2,-32 -2,-23 -1,-13 0,-2 Z"/>
  </g>
  <g id="bullet-char-template-10004" transform="scale(0.00048828125,-0.00048828125)">
   <path d="M 285,-33 C 182,-33 111,30 74,156 52,228 41,333 41,471 41,549 55,616 82,672 116,743 169,778 240,778 293,778 328,747 346,684 L 369,508 C 377,444 397,411 428,410 L 1163,1116 C 1174,1127 1196,1133 1229,1133 1271,1133 1292,1118 1292,1087 L 1292,965 C 1292,929 1282,901 1262,881 L 442,47 C 390,-6 338,-33 285,-33 Z"/>
  </g>
  <g id="bullet-char-template-9679" transform="scale(0.00048828125,-0.00048828125)">
   <path d="M 813,0 C 632,0 489,54 383,161 276,268 223,411 223,592 223,773 276,916 383,1023 489,1130 632,1184 813,1184 992,1184 1136,1130 1245,1023 1353,916 1407,772 1407,592 1407,412 1353,268 1245,161 1136,54 992,0 813,0 Z"/>
  </g>
  <g id="bullet-char-template-8226" transform="scale(0.00048828125,-0.00048828125)">
   <path d="M 346,457 C 273,457 209,483 155,535 101,586 74,649 74,723 74,796 101,859 155,911 209,963 273,989 346,989 419,989 480,963 531,910 582,859 608,796 608,723 608,648 583,586 532,535 482,483 420,457 346,457 Z"/>
  </g>
  <g id="bullet-char-template-8211" transform="scale(0.00048828125,-0.00048828125)">
   <path d="M -4,459 L 1135,459 1135,606 -4,606 -4,459 Z"/>
  </g>
  <g id="bullet-char-template-61548" transform="scale(0.00048828125,-0.00048828125)">
   <path d="M 173,740 C 173,903 231,1043 346,1159 462,1274 601,1332 765,1332 928,1332 1067,1274 1183,1159 1299,1043 1357,903 1357,740 1357,577 1299,437 1183,322 1067,206 928,148 765,148 601,148 462,206 346,322 231,437 173,577 173,740 Z"/>
  </g>
 </defs>
 <g>
  <g id="id2" class="Master_Slide">
   <g id="bg-id2" class="Background"/>
   <g id="bo-id2" class="BackgroundObjects"/>
  </g>
 </g>
 <g class="SlideGroup">
  <g>
   <g id="container-id1">
    <g id="id1" class="Slide" clip-path="url(#presentation_clip_path)">
     <g class="Page">
      <g class="com.sun.star.drawing.CustomShape">
       <g id="id3">
        <rect class="BoundingBox" stroke="none" fill="none" x="5627" y="8671" width="302" height="293"/>
        <path fill="rgb(89,131,176)" fill-opacity="0.502" stroke="none" d="M 5778,8962 L 5628,8962 5628,8672 5927,8672 5927,8962 5778,8962 Z"/>
        <path fill="none" stroke="rgb(52,101,164)" d="M 5778,8962 L 5628,8962 5628,8672 5927,8672 5927,8962 5778,8962 Z"/>
       </g>
      </g>
      <g class="com.sun.star.drawing.CustomShape">
       <g id="id4">
        <rect class="BoundingBox" stroke="none" fill="none" x="3726" y="3848" width="7899" height="5166"/>
        <path fill="rgb(128,128,128)" stroke="none" d="M 4587,3849 L 4587,3849 C 4436,3849 4288,3889 4157,3964 4026,4040 3918,4148 3842,4279 3767,4410 3727,4558 3727,4710 L 3727,8151 3727,8152 C 3727,8303 3767,8451 3842,8582 3918,8713 4026,8821 4157,8897 4288,8972 4436,9012 4587,9012 L 10762,9012 10762,9012 C 10914,9012 11062,8972 11193,8897 11324,8821 11432,8713 11508,8582 11583,8451 11623,8303 11623,8152 L 11623,4709 11623,4710 11623,4710 C 11623,4558 11583,4410 11508,4279 11432,4148 11324,4040 11193,3964 11062,3889 10914,3849 10762,3849 L 4587,3849 Z"/>
        <path fill="none" stroke="rgb(128,128,128)" d="M 4587,3849 L 4587,3849 C 4436,3849 4288,3889 4157,3964 4026,4040 3918,4148 3842,4279 3767,4410 3727,4558 3727,4710 L 3727,8151 3727,8152 C 3727,8303 3767,8451 3842,8582 3918,8713 4026,8821 4157,8897 4288,8972 4436,9012 4587,9012 L 10762,9012 10762,9012 C 10914,9012 11062,8972 11193,8897 11324,8821 11432,8713 11508,8582 11583,8451 11623,8303 11623,8152 L 11623,4709 11623,4710 11623,4710 C 11623,4558 11583,4410 11508,4279 11432,4148 11324,4040 11193,3964 11062,3889 10914,3849 10762,3849 L 4587,3849 Z"/>
       </g>
      </g>
      <g class="com.sun.star.drawing.CustomShape">
       <g id="id5">
        <rect class="BoundingBox" stroke="none" fill="none" x="3805" y="3916" width="7748" height="5038"/>
        <path fill="rgb(42,96,153)" stroke="none" d="M 4645,3917 L 4645,3917 C 4498,3917 4353,3956 4226,4029 4098,4103 3992,4209 3918,4337 3845,4464 3806,4609 3806,4756 L 3806,8112 3806,8113 C 3806,8260 3845,8405 3918,8532 3992,8660 4098,8766 4226,8840 4353,8913 4498,8952 4645,8952 L 10711,8952 10712,8952 C 10859,8952 11004,8913 11131,8840 11259,8766 11365,8660 11439,8532 11512,8405 11551,8260 11551,8113 L 11551,4756 11551,4756 11551,4756 C 11551,4609 11512,4464 11439,4337 11365,4209 11259,4103 11131,4029 11004,3956 10859,3917 10712,3917 L 4645,3917 Z"/>
        <path fill="none" stroke="rgb(0,0,0)" d="M 4645,3917 L 4645,3917 C 4498,3917 4353,3956 4226,4029 4098,4103 3992,4209 3918,4337 3845,4464 3806,4609 3806,4756 L 3806,8112 3806,8113 C 3806,8260 3845,8405 3918,8532 3992,8660 4098,8766 4226,8840 4353,8913 4498,8952 4645,8952 L 10711,8952 10712,8952 C 10859,8952 11004,8913 11131,8840 11259,8766 11365,8660 11439,8532 11512,8405 11551,8260 11551,8113 L 11551,4756 11551,4756 11551,4756 C 11551,4609 11512,4464 11439,4337 11365,4209 11259,4103 11131,4029 11004,3956 10859,3917 10712,3917 L 4645,3917 Z"/>
       </g>
      </g>
      <g class="com.sun.star.drawing.CustomShape">
       <g id="id6">
        <rect class="BoundingBox" stroke="none" fill="none" x="2922" y="9003" width="9509" height="1667"/>
        <path fill="rgb(128,128,128)" stroke="none" d="M 7676,10668 L 2923,10668 2923,9004 12429,9004 12429,10668 7676,10668 Z"/>
        <path fill="none" stroke="rgb(128,128,128)" d="M 7676,10668 L 2923,10668 2923,9004 12429,9004 12429,10668 7676,10668 Z"/>
       </g>
      </g>
      <g class="com.sun.star.drawing.CustomShape">
       <g id="id7">
        <rect class="BoundingBox" stroke="none" fill="none" x="4408" y="8672" width="6527" height="291"/>
        <path fill="rgb(180,199,220)" stroke="none" d="M 4457,8673 L 4457,8673 C 4449,8673 4440,8675 4433,8679 4426,8684 4420,8690 4415,8697 4411,8704 4409,8713 4409,8721 L 4409,8913 4409,8913 C 4409,8921 4411,8930 4415,8937 4420,8944 4426,8950 4433,8955 4440,8959 4449,8961 4457,8961 L 10885,8961 10885,8961 C 10893,8961 10902,8959 10909,8955 10916,8950 10922,8944 10927,8937 10931,8930 10933,8921 10933,8913 L 10933,8721 10933,8721 10933,8721 C 10933,8713 10931,8704 10927,8697 10922,8690 10916,8684 10909,8679 10902,8675 10893,8673 10885,8673 L 4457,8673 Z"/>
        <path fill="none" stroke="rgb(180,199,220)" d="M 4457,8673 L 4457,8673 C 4449,8673 4440,8675 4433,8679 4426,8684 4420,8690 4415,8697 4411,8704 4409,8713 4409,8721 L 4409,8913 4409,8913 C 4409,8921 4411,8930 4415,8937 4420,8944 4426,8950 4433,8955 4440,8959 4449,8961 4457,8961 L 10885,8961 10885,8961 C 10893,8961 10902,8959 10909,8955 10916,8950 10922,8944 10927,8937 10931,8930 10933,8921 10933,8913 L 10933,8721 10933,8721 10933,8721 C 10933,8713 10931,8704 10927,8697 10922,8690 10916,8684 10909,8679 10902,8675 10893,8673 10885,8673 L 4457,8673 Z"/>
       </g>
      </g>
      <g class="com.sun.star.drawing.CustomShape">
       <g id="id8">
        <rect class="BoundingBox" stroke="none" fill="none" x="5456" y="5358" width="2868" height="2422"/>
        <path fill="rgb(221,221,221)" stroke="none" d="M 6890,7778 L 5457,7778 5457,5359 8322,5359 8322,7778 6890,7778 Z"/>
        <path fill="none" stroke="rgb(221,221,221)" d="M 6890,7778 L 5457,7778 5457,5359 8322,5359 8322,7778 6890,7778 Z"/>
       </g>
      </g>
      <g class="com.sun.star.drawing.CustomShape">
       <g id="id9">
        <rect class="BoundingBox" stroke="none" fill="none" x="7977" y="5355" width="350" height="237"/>
        <path fill="rgb(159,2,2)" stroke="none" d="M 8152,5590 L 7978,5590 7978,5356 8325,5356 8325,5590 8152,5590 Z"/>
        <path fill="none" stroke="rgb(159,2,2)" d="M 8152,5590 L 7978,5590 7978,5356 8325,5356 8325,5590 8152,5590 Z"/>
       </g>
      </g>
      <g class="com.sun.star.drawing.CustomShape">
       <g id="id10">
        <rect class="BoundingBox" stroke="none" fill="none" x="4754" y="8699" width="238" height="234"/>
        <path fill="rgb(114,159,207)" stroke="none" d="M 4873,8931 L 4755,8931 4755,8700 4990,8700 4990,8931 4873,8931 Z"/>
        <path fill="none" stroke="rgb(52,101,164)" d="M 4873,8931 L 4755,8931 4755,8700 4990,8700 4990,8931 4873,8931 Z"/>
       </g>
      </g>
      <g class="com.sun.star.drawing.CustomShape">
       <g id="id11">
        <rect class="BoundingBox" stroke="none" fill="none" x="2973" y="9043" width="317" height="317"/>
        <path fill="rgb(0,0,0)" stroke="none" d="M 3288,9201 C 3288,9229 3281,9256 3267,9280 3253,9303 3233,9323 3210,9337 3186,9351 3159,9358 3131,9358 3103,9358 3076,9351 3053,9337 3029,9323 3009,9303 2995,9280 2981,9256 2974,9229 2974,9201 2974,9173 2981,9146 2995,9123 3009,9099 3029,9079 3053,9065 3076,9051 3103,9044 3131,9044 3159,9044 3186,9051 3210,9065 3233,9079 3253,9099 3267,9123 3281,9146 3288,9173 3288,9201 L 3288,9201 Z"/>
        <path fill="none" stroke="rgb(0,0,0)" d="M 3288,9201 C 3288,9229 3281,9256 3267,9280 3253,9303 3233,9323 3210,9337 3186,9351 3159,9358 3131,9358 3103,9358 3076,9351 3053,9337 3029,9323 3009,9303 2995,9280 2981,9256 2974,9229 2974,9201 2974,9173 2981,9146 2995,9123 3009,9099 3029,9079 3053,9065 3076,9051 3103,9044 3131,9044 3159,9044 3186,9051 3210,9065 3233,9079 3253,9099 3267,9123 3281,9146 3288,9173 3288,9201 Z"/>
       </g>
      </g>
      <g class="com.sun.star.drawing.CustomShape">
       <g id="id12">
        <rect class="BoundingBox" stroke="none" fill="none" x="3373" y="9043" width="317" height="317"/>
        <path fill="rgb(0,0,0)" stroke="none" d="M 3688,9201 C 3688,9229 3681,9256 3667,9280 3653,9303 3633,9323 3610,9337 3586,9351 3559,9358 3531,9358 3503,9358 3476,9351 3453,9337 3429,9323 3409,9303 3395,9280 3381,9256 3374,9229 3374,9201 3374,9173 3381,9146 3395,9123 3409,9099 3429,9079 3453,9065 3476,9051 3503,9044 3531,9044 3559,9044 3586,9051 3610,9065 3633,9079 3653,9099 3667,9123 3681,9146 3688,9173 3688,9201 L 3688,9201 Z"/>
        <path fill="none" stroke="rgb(0,0,0)" d="M 3688,9201 C 3688,9229 3681,9256 3667,9280 3653,9303 3633,9323 3610,9337 3586,9351 3559,9358 3531,9358 3503,9358 3476,9351 3453,9337 3429,9323 3409,9303 3395,9280 3381,9256 3374,9229 3374,9201 3374,9173 3381,9146 3395,9123 3409,9099 3429,9079 3453,9065 3476,9051 3503,9044 3531,9044 3559,9044 3586,9051 3610,9065 3633,9079 3653,9099 3667,9123 3681,9146 3688,9173 3688,9201 Z"/>
       </g>
      </g>
      <g class="com.sun.star.drawing.CustomShape">
       <g id="id13">
        <rect class="BoundingBox" stroke="none" fill="none" x="3773" y="9043" width="317" height="317"/>
        <path fill="rgb(201,33,30)" stroke="none" d="M 4088,9201 C 4088,9229 4081,9256 4067,9280 4053,9303 4033,9323 4010,9337 3986,9351 3959,9358 3931,9358 3903,9358 3876,9351 3853,9337 3829,9323 3809,9303 3795,9280 3781,9256 3774,9229 3774,9201 3774,9173 3781,9146 3795,9123 3809,9099 3829,9079 3853,9065 3876,9051 3903,9044 3931,9044 3959,9044 3986,9051 4010,9065 4033,9079 4053,9099 4067,9123 4081,9146 4088,9173 4088,9201 L 4088,9201 Z"/>
        <path fill="none" stroke="rgb(255,0,0)" d="M 4088,9201 C 4088,9229 4081,9256 4067,9280 4053,9303 4033,9323 4010,9337 3986,9351 3959,9358 3931,9358 3903,9358 3876,9351 3853,9337 3829,9323 3809,9303 3795,9280 3781,9256 3774,9229 3774,9201 3774,9173 3781,9146 3795,9123 3809,9099 3829,9079 3853,9065 3876,9051 3903,9044 3931,9044 3959,9044 3986,9051 4010,9065 4033,9079 4053,9099 4067,9123 4081,9146 4088,9173 4088,9201 Z"/>
       </g>
      </g>
      <g class="com.sun.star.drawing.CustomShape">
       <g id="id14">
        <rect class="BoundingBox" stroke="none" fill="none" x="4173" y="9043" width="317" height="317"/>
        <path fill="rgb(6,154,46)" stroke="none" d="M 4488,9201 C 4488,9229 4481,9256 4467,9280 4453,9303 4433,9323 4410,9337 4386,9351 4359,9358 4331,9358 4303,9358 4276,9351 4253,9337 4229,9323 4209,9303 4195,9280 4181,9256 4174,9229 4174,9201 4174,9173 4181,9146 4195,9123 4209,9099 4229,9079 4253,9065 4276,9051 4303,9044 4331,9044 4359,9044 4386,9051 4410,9065 4433,9079 4453,9099 4467,9123 4481,9146 4488,9173 4488,9201 L 4488,9201 Z"/>
        <path fill="none" stroke="rgb(6,154,46)" d="M 4488,9201 C 4488,9229 4481,9256 4467,9280 4453,9303 4433,9323 4410,9337 4386,9351 4359,9358 4331,9358 4303,9358 4276,9351 4253,9337 4229,9323 4209,9303 4195,9280 4181,9256 4174,9229 4174,9201 4174,9173 4181,9146 4195,9123 4209,9099 4229,9079 4253,9065 4276,9051 4303,9044 4331,9044 4359,9044 4386,9051 4410,9065 4433,9079 4453,9099 4467,9123 4481,9146 4488,9173 4488,9201 Z"/>
       </g>
      </g>
      <g class="com.sun.star.drawing.CustomShape">
       <g id="id15">
        <rect class="BoundingBox" stroke="none" fill="none" x="2967" y="9441" width="3232" height="119"/>
        <path fill="rgb(51,51,51)" stroke="none" d="M 4583,9558 L 2968,9558 2968,9442 6197,9442 6197,9558 4583,9558 Z"/>
        <path fill="none" stroke="rgb(51,51,51)" d="M 4583,9558 L 2968,9558 2968,9442 6197,9442 6197,9558 4583,9558 Z"/>
       </g>
      </g>
      <g class="com.sun.star.drawing.CustomShape">
       <g id="id16">
        <rect class="BoundingBox" stroke="none" fill="none" x="4429" y="8677" width="285" height="279"/>
        <path fill="rgb(114,159,207)" stroke="none" d="M 4712,8816 C 4712,8840 4705,8864 4693,8885 4681,8906 4663,8923 4642,8936 4620,8948 4596,8954 4571,8954 4546,8954 4522,8948 4501,8936 4479,8923 4461,8906 4449,8885 4437,8864 4430,8840 4430,8816 4430,8792 4437,8768 4449,8747 4461,8726 4479,8709 4501,8696 4522,8684 4546,8678 4571,8678 4596,8678 4620,8684 4642,8696 4663,8709 4681,8726 4693,8747 4705,8768 4712,8792 4712,8816 L 4712,8816 Z"/>
        <path fill="none" stroke="rgb(102,102,102)" d="M 4712,8816 C 4712,8840 4705,8864 4693,8885 4681,8906 4663,8923 4642,8936 4620,8948 4596,8954 4571,8954 4546,8954 4522,8948 4501,8936 4479,8923 4461,8906 4449,8885 4437,8864 4430,8840 4430,8816 4430,8792 4437,8768 4449,8747 4461,8726 4479,8709 4501,8696 4522,8684 4546,8678 4571,8678 4596,8678 4620,8684 4642,8696 4663,8709 4681,8726 4693,8747 4705,8768 4712,8792 4712,8816 Z"/>
       </g>
      </g>
      <g class="com.sun.star.drawing.CustomShape">
       <g id="id17">
        <rect class="BoundingBox" stroke="none" fill="none" x="5525" y="5806" width="1401" height="212"/>
        <path fill="rgb(142,134,174)" stroke="none" d="M 5560,5807 L 5561,5807 C 5555,5807 5549,5809 5543,5812 5538,5815 5534,5819 5531,5824 5528,5830 5526,5836 5526,5842 L 5526,5981 5526,5981 C 5526,5987 5528,5993 5531,5999 5534,6004 5538,6008 5543,6011 5549,6014 5555,6016 5561,6016 L 6889,6016 6889,6016 C 6895,6016 6901,6014 6907,6011 6912,6008 6916,6004 6919,5999 6922,5993 6924,5987 6924,5981 L 6924,5841 6924,5842 6924,5842 C 6924,5836 6922,5830 6919,5824 6916,5819 6912,5815 6907,5812 6901,5809 6895,5807 6889,5807 L 5560,5807 Z"/>
        <path fill="none" stroke="rgb(52,101,164)" d="M 5560,5807 L 5561,5807 C 5555,5807 5549,5809 5543,5812 5538,5815 5534,5819 5531,5824 5528,5830 5526,5836 5526,5842 L 5526,5981 5526,5981 C 5526,5987 5528,5993 5531,5999 5534,6004 5538,6008 5543,6011 5549,6014 5555,6016 5561,6016 L 6889,6016 6889,6016 C 6895,6016 6901,6014 6907,6011 6912,6008 6916,6004 6919,5999 6922,5993 6924,5987 6924,5981 L 6924,5841 6924,5842 6924,5842 C 6924,5836 6922,5830 6919,5824 6916,5819 6912,5815 6907,5812 6901,5809 6895,5807 6889,5807 L 5560,5807 Z"/>
       </g>
      </g>
      <g class="com.sun.star.drawing.CustomShape">
       <g id="id18">
        <rect class="BoundingBox" stroke="none" fill="none" x="6687" y="6079" width="1577" height="123"/>
        <path fill="rgb(175,208,149)" stroke="none" d="M 6708,6080 L 6708,6080 C 6704,6080 6701,6081 6698,6083 6695,6084 6692,6087 6691,6090 6689,6093 6688,6096 6688,6100 L 6688,6180 6688,6180 C 6688,6184 6689,6187 6691,6190 6692,6193 6695,6196 6698,6197 6701,6199 6704,6200 6708,6200 L 8242,6200 8242,6200 C 8246,6200 8249,6199 8252,6197 8255,6196 8258,6193 8259,6190 8261,6187 8262,6184 8262,6180 L 8262,6100 8262,6100 8262,6100 C 8262,6096 8261,6093 8259,6090 8258,6087 8255,6084 8252,6083 8249,6081 8246,6080 8242,6080 L 6708,6080 Z"/>
        <path fill="none" stroke="rgb(63,175,70)" d="M 6708,6080 L 6708,6080 C 6704,6080 6701,6081 6698,6083 6695,6084 6692,6087 6691,6090 6689,6093 6688,6096 6688,6100 L 6688,6180 6688,6180 C 6688,6184 6689,6187 6691,6190 6692,6193 6695,6196 6698,6197 6701,6199 6704,6200 6708,6200 L 8242,6200 8242,6200 C 8246,6200 8249,6199 8252,6197 8255,6196 8258,6193 8259,6190 8261,6187 8262,6184 8262,6180 L 8262,6100 8262,6100 8262,6100 C 8262,6096 8261,6093 8259,6090 8258,6087 8255,6084 8252,6083 8249,6081 8246,6080 8242,6080 L 6708,6080 Z"/>
       </g>
      </g>
      <g class="com.sun.star.drawing.CustomShape">
       <g id="id19">
        <rect class="BoundingBox" stroke="none" fill="none" x="5446" y="7659" width="2884" height="131"/>
        <path fill="rgb(153,153,153)" stroke="none" d="M 5471,7664 L 5471,7664 C 5467,7664 5464,7665 5461,7667 5458,7668 5455,7671 5454,7674 5452,7677 5451,7680 5451,7684 L 5451,7764 5451,7764 C 5451,7768 5452,7771 5454,7774 5455,7777 5458,7780 5461,7781 5464,7783 5467,7784 5471,7784 L 8304,7784 8304,7784 C 8308,7784 8311,7783 8314,7781 8317,7780 8320,7777 8321,7774 8323,7771 8324,7768 8324,7764 L 8324,7684 8324,7684 8324,7684 C 8324,7680 8323,7677 8321,7674 8320,7671 8317,7668 8314,7667 8311,7665 8308,7664 8304,7664 L 5471,7664 Z"/>
        <path fill="none" stroke="rgb(102,102,102)" stroke-width="10" stroke-linejoin="round" d="M 5471,7664 L 5471,7664 C 5467,7664 5464,7665 5461,7667 5458,7668 5455,7671 5454,7674 5452,7677 5451,7680 5451,7684 L 5451,7764 5451,7764 C 5451,7768 5452,7771 5454,7774 5455,7777 5458,7780 5461,7781 5464,7783 5467,7784 5471,7784 L 8304,7784 8304,7784 C 8308,7784 8311,7783 8314,7781 8317,7780 8320,7777 8321,7774 8323,7771 8324,7768 8324,7764 L 8324,7684 8324,7684 8324,7684 C 8324,7680 8323,7677 8321,7674 8320,7671 8317,7668 8314,7667 8311,7665 8308,7664 8304,7664 L 5471,7664 Z"/>
       </g>
      </g>
      <g class="com.sun.star.drawing.CustomShape">
       <g id="id20">
        <rect class="BoundingBox" stroke="none" fill="none" x="5525" y="6307" width="851" height="212"/>
        <path fill="rgb(142,134,174)" stroke="none" d="M 5560,6308 L 5561,6308 C 5555,6308 5549,6310 5543,6313 5538,6316 5534,6320 5531,6325 5528,6331 5526,6337 5526,6343 L 5526,6482 5526,6482 C 5526,6488 5528,6494 5531,6500 5534,6505 5538,6509 5543,6512 5549,6515 5555,6517 5561,6517 L 6339,6517 6339,6517 C 6345,6517 6351,6515 6357,6512 6362,6509 6366,6505 6369,6500 6372,6494 6374,6488 6374,6482 L 6374,6342 6374,6343 6374,6343 C 6374,6337 6372,6331 6369,6325 6366,6320 6362,6316 6357,6313 6351,6310 6345,6308 6339,6308 L 5560,6308 Z"/>
        <path fill="none" stroke="rgb(52,101,164)" d="M 5560,6308 L 5561,6308 C 5555,6308 5549,6310 5543,6313 5538,6316 5534,6320 5531,6325 5528,6331 5526,6337 5526,6343 L 5526,6482 5526,6482 C 5526,6488 5528,6494 5531,6500 5534,6505 5538,6509 5543,6512 5549,6515 5555,6517 5561,6517 L 6339,6517 6339,6517 C 6345,6517 6351,6515 6357,6512 6362,6509 6366,6505 6369,6500 6372,6494 6374,6488 6374,6482 L 6374,6342 6374,6343 6374,6343 C 6374,6337 6372,6331 6369,6325 6366,6320 6362,6316 6357,6313 6351,6310 6345,6308 6339,6308 L 5560,6308 Z"/>
       </g>
      </g>
      <g class="com.sun.star.drawing.CustomShape">
       <g id="id21">
        <rect class="BoundingBox" stroke="none" fill="none" x="5526" y="6508" width="1650" height="408"/>
        <path fill="rgb(142,134,174)" stroke="none" d="M 5594,6509 L 5594,6509 C 5583,6509 5571,6512 5561,6518 5550,6524 5542,6532 5536,6543 5530,6553 5527,6565 5527,6577 L 5527,6846 5527,6847 C 5527,6858 5530,6870 5536,6880 5542,6891 5550,6899 5561,6905 5571,6911 5583,6914 5594,6914 L 7106,6914 7106,6914 C 7118,6914 7130,6911 7140,6905 7151,6899 7159,6891 7165,6880 7171,6870 7174,6858 7174,6847 L 7174,6576 7174,6577 7174,6577 C 7174,6565 7171,6553 7165,6543 7159,6532 7151,6524 7140,6518 7130,6512 7118,6509 7106,6509 L 5594,6509 Z"/>
        <path fill="none" stroke="rgb(52,101,164)" d="M 5594,6509 L 5594,6509 C 5583,6509 5571,6512 5561,6518 5550,6524 5542,6532 5536,6543 5530,6553 5527,6565 5527,6577 L 5527,6846 5527,6847 C 5527,6858 5530,6870 5536,6880 5542,6891 5550,6899 5561,6905 5571,6911 5583,6914 5594,6914 L 7106,6914 7106,6914 C 7118,6914 7130,6911 7140,6905 7151,6899 7159,6891 7165,6880 7171,6870 7174,6858 7174,6847 L 7174,6576 7174,6577 7174,6577 C 7174,6565 7171,6553 7165,6543 7159,6532 7151,6524 7140,6518 7130,6512 7118,6509 7106,6509 L 5594,6509 Z"/>
       </g>
      </g>
      <g class="com.sun.star.drawing.CustomShape">
       <g id="id22">
        <rect class="BoundingBox" stroke="none" fill="none" x="5526" y="6909" width="1114" height="382"/>
        <path fill="rgb(142,134,174)" stroke="none" d="M 5590,6910 L 5590,6910 C 5579,6910 5568,6913 5559,6918 5549,6924 5541,6932 5535,6942 5530,6951 5527,6962 5527,6973 L 5527,7225 5527,7226 C 5527,7237 5530,7248 5535,7257 5541,7267 5549,7275 5559,7281 5568,7286 5579,7289 5590,7289 L 6574,7289 6575,7289 C 6586,7289 6597,7286 6606,7281 6616,7275 6624,7267 6630,7257 6635,7248 6638,7237 6638,7226 L 6638,6973 6638,6973 6638,6973 C 6638,6962 6635,6951 6630,6942 6624,6932 6616,6924 6606,6918 6597,6913 6586,6910 6575,6910 L 5590,6910 Z"/>
        <path fill="none" stroke="rgb(52,101,164)" d="M 5590,6910 L 5590,6910 C 5579,6910 5568,6913 5559,6918 5549,6924 5541,6932 5535,6942 5530,6951 5527,6962 5527,6973 L 5527,7225 5527,7226 C 5527,7237 5530,7248 5535,7257 5541,7267 5549,7275 5559,7281 5568,7286 5579,7289 5590,7289 L 6574,7289 6575,7289 C 6586,7289 6597,7286 6606,7281 6616,7275 6624,7267 6630,7257 6635,7248 6638,7237 6638,7226 L 6638,6973 6638,6973 6638,6973 C 6638,6962 6635,6951 6630,6942 6624,6932 6616,6924 6606,6918 6597,6913 6586,6910 6575,6910 L 5590,6910 Z"/>
       </g>
      </g>
      <g class="com.sun.star.drawing.CustomShape">
       <g id="id23">
        <rect class="BoundingBox" stroke="none" fill="none" x="6870" y="6200" width="1403" height="123"/>
        <path fill="rgb(175,208,149)" stroke="none" d="M 6891,6201 L 6891,6201 C 6887,6201 6884,6202 6881,6204 6878,6205 6875,6208 6874,6211 6872,6214 6871,6217 6871,6221 L 6871,6301 6871,6301 C 6871,6305 6872,6308 6874,6311 6875,6314 6878,6317 6881,6318 6884,6320 6887,6321 6891,6321 L 8251,6321 8251,6321 C 8255,6321 8258,6320 8261,6318 8264,6317 8267,6314 8268,6311 8270,6308 8271,6305 8271,6301 L 8271,6221 8271,6221 8271,6221 C 8271,6217 8270,6214 8268,6211 8267,6208 8264,6205 8261,6204 8258,6202 8255,6201 8251,6201 L 6891,6201 Z"/>
        <path fill="none" stroke="rgb(63,175,70)" d="M 6891,6201 L 6891,6201 C 6887,6201 6884,6202 6881,6204 6878,6205 6875,6208 6874,6211 6872,6214 6871,6217 6871,6221 L 6871,6301 6871,6301 C 6871,6305 6872,6308 6874,6311 6875,6314 6878,6317 6881,6318 6884,6320 6887,6321 6891,6321 L 8251,6321 8251,6321 C 8255,6321 8258,6320 8261,6318 8264,6317 8267,6314 8268,6311 8270,6308 8271,6305 8271,6301 L 8271,6221 8271,6221 8271,6221 C 8271,6217 8270,6214 8268,6211 8267,6208 8264,6205 8261,6204 8258,6202 8255,6201 8251,6201 L 6891,6201 Z"/>
       </g>
      </g>
      <g class="com.sun.star.drawing.CustomShape">
       <g id="id24">
        <rect class="BoundingBox" stroke="none" fill="none" x="6870" y="7260" width="1403" height="315"/>
        <path fill="rgb(175,208,149)" stroke="none" d="M 6923,7261 L 6923,7261 C 6914,7261 6905,7263 6897,7268 6889,7273 6883,7279 6878,7287 6873,7295 6871,7304 6871,7313 L 6871,7521 6871,7521 C 6871,7530 6873,7539 6878,7547 6883,7555 6889,7561 6897,7566 6905,7571 6914,7573 6923,7573 L 8219,7573 8219,7573 C 8228,7573 8237,7571 8245,7566 8253,7561 8259,7555 8264,7547 8269,7539 8271,7530 8271,7521 L 8271,7313 8271,7313 8271,7313 C 8271,7304 8269,7295 8264,7287 8259,7279 8253,7273 8245,7268 8237,7263 8228,7261 8219,7261 L 6923,7261 Z"/>
        <path fill="none" stroke="rgb(63,175,70)" d="M 6923,7261 L 6923,7261 C 6914,7261 6905,7263 6897,7268 6889,7273 6883,7279 6878,7287 6873,7295 6871,7304 6871,7313 L 6871,7521 6871,7521 C 6871,7530 6873,7539 6878,7547 6883,7555 6889,7561 6897,7566 6905,7571 6914,7573 6923,7573 L 8219,7573 8219,7573 C 8228,7573 8237,7571 8245,7566 8253,7561 8259,7555 8264,7547 8269,7539 8271,7530 8271,7521 L 8271,7313 8271,7313 8271,7313 C 8271,7304 8269,7295 8264,7287 8259,7279 8253,7273 8245,7268 8237,7263 8228,7261 8219,7261 L 6923,7261 Z"/>
       </g>
      </g>
      <g class="com.sun.star.drawing.CustomShape">
       <g id="id25">
        <rect class="BoundingBox" stroke="none" fill="none" x="6999" y="7140" width="1278" height="123"/>
        <path fill="rgb(175,208,149)" stroke="none" d="M 7020,7141 L 7020,7141 C 7016,7141 7013,7142 7010,7144 7007,7145 7004,7148 7003,7151 7001,7154 7000,7157 7000,7161 L 7000,7241 7000,7241 C 7000,7245 7001,7248 7003,7251 7004,7254 7007,7257 7010,7258 7013,7260 7016,7261 7020,7261 L 8255,7261 8255,7261 C 8259,7261 8262,7260 8265,7258 8268,7257 8271,7254 8272,7251 8274,7248 8275,7245 8275,7241 L 8275,7161 8275,7161 8275,7161 C 8275,7157 8274,7154 8272,7151 8271,7148 8268,7145 8265,7144 8262,7142 8259,7141 8255,7141 L 7020,7141 Z"/>
        <path fill="none" stroke="rgb(63,175,70)" d="M 7020,7141 L 7020,7141 C 7016,7141 7013,7142 7010,7144 7007,7145 7004,7148 7003,7151 7001,7154 7000,7157 7000,7161 L 7000,7241 7000,7241 C 7000,7245 7001,7248 7003,7251 7004,7254 7007,7257 7010,7258 7013,7260 7016,7261 7020,7261 L 8255,7261 8255,7261 C 8259,7261 8262,7260 8265,7258 8268,7257 8271,7254 8272,7251 8274,7248 8275,7245 8275,7241 L 8275,7161 8275,7161 8275,7161 C 8275,7157 8274,7154 8272,7151 8271,7148 8268,7145 8265,7144 8262,7142 8259,7141 8255,7141 L 7020,7141 Z"/>
       </g>
      </g>
      <g class="com.sun.star.drawing.CustomShape">
       <g id="id26">
        <rect class="BoundingBox" stroke="none" fill="none" x="5454" y="5355" width="2525" height="236"/>
        <path fill="rgb(128,128,128)" stroke="none" d="M 6716,5589 L 5455,5589 5455,5356 7977,5356 7977,5589 6716,5589 Z"/>
        <path fill="none" stroke="rgb(52,101,164)" d="M 6716,5589 L 5455,5589 5455,5356 7977,5356 7977,5589 6716,5589 Z"/>
       </g>
      </g>
      <g class="com.sun.star.drawing.CustomShape">
       <g id="id27">
        <rect class="BoundingBox" stroke="none" fill="none" x="5054" y="8699" width="238" height="234"/>
        <path fill="rgb(114,159,207)" stroke="none" d="M 5173,8931 L 5055,8931 5055,8700 5290,8700 5290,8931 5173,8931 Z"/>
        <path fill="none" stroke="rgb(52,101,164)" d="M 5173,8931 L 5055,8931 5055,8700 5290,8700 5290,8931 5173,8931 Z"/>
       </g>
      </g>
      <g class="com.sun.star.drawing.CustomShape">
       <g id="id28">
        <rect class="BoundingBox" stroke="none" fill="none" x="5354" y="8699" width="238" height="234"/>
        <path fill="rgb(114,159,207)" stroke="none" d="M 5473,8931 L 5355,8931 5355,8700 5590,8700 5590,8931 5473,8931 Z"/>
        <path fill="none" stroke="rgb(52,101,164)" d="M 5473,8931 L 5355,8931 5355,8700 5590,8700 5590,8931 5473,8931 Z"/>
       </g>
      </g>
      <g class="com.sun.star.drawing.CustomShape">
       <g id="id29">
        <rect class="BoundingBox" stroke="none" fill="none" x="5654" y="8699" width="238" height="234"/>
        <path fill="rgb(114,159,207)" stroke="none" d="M 5773,8931 L 5655,8931 5655,8700 5890,8700 5890,8931 5773,8931 Z"/>
        <path fill="none" stroke="rgb(52,101,164)" d="M 5773,8931 L 5655,8931 5655,8700 5890,8700 5890,8931 5773,8931 Z"/>
       </g>
      </g>
      <g class="com.sun.star.drawing.CustomShape">
       <g id="id30">
        <rect class="BoundingBox" stroke="none" fill="none" x="5954" y="8699" width="238" height="234"/>
        <path fill="rgb(114,159,207)" stroke="none" d="M 6073,8931 L 5955,8931 5955,8700 6190,8700 6190,8931 6073,8931 Z"/>
        <path fill="none" stroke="rgb(52,101,164)" d="M 6073,8931 L 5955,8931 5955,8700 6190,8700 6190,8931 6073,8931 Z"/>
       </g>
      </g>
      <g class="com.sun.star.drawing.CustomShape">
       <g id="id31">
        <rect class="BoundingBox" stroke="none" fill="none" x="6254" y="8699" width="238" height="234"/>
        <path fill="rgb(114,159,207)" stroke="none" d="M 6373,8931 L 6255,8931 6255,8700 6490,8700 6490,8931 6373,8931 Z"/>
        <path fill="none" stroke="rgb(52,101,164)" d="M 6373,8931 L 6255,8931 6255,8700 6490,8700 6490,8931 6373,8931 Z"/>
       </g>
      </g>
      <g class="com.sun.star.drawing.CustomShape">
       <g id="id32">
        <rect class="BoundingBox" stroke="none" fill="none" x="5921" y="8674" width="304" height="287"/>
        <path fill="rgb(89,131,176)" fill-opacity="0.502" stroke="none" d="M 6073,8959 L 5922,8959 5922,8675 6223,8675 6223,8959 6073,8959 Z"/>
        <path fill="none" stroke="rgb(52,101,164)" d="M 6073,8959 L 5922,8959 5922,8675 6223,8675 6223,8959 6073,8959 Z"/>
       </g>
      </g>
      <g class="com.sun.star.drawing.CustomShape">
       <g id="id33">
        <rect class="BoundingBox" stroke="none" fill="none" x="10424" y="8701" width="475" height="237"/>
        <path fill="rgb(153,153,153)" stroke="none" d="M 10661,8936 L 10425,8936 10425,8702 10897,8702 10897,8936 10661,8936 Z"/>
        <path fill="none" stroke="rgb(204,204,204)" d="M 10661,8936 L 10425,8936 10425,8702 10897,8702 10897,8936 10661,8936 Z"/>
       </g>
      </g>
      <g class="com.sun.star.drawing.CustomShape">
       <g id="id34">
        <rect class="BoundingBox" stroke="none" fill="none" x="10057" y="8728" width="278" height="184"/>
        <path fill="rgb(153,153,153)" stroke="none" d="M 10196,8910 L 10058,8729 10333,8729 10196,8910 Z"/>
        <path fill="none" stroke="rgb(204,204,204)" d="M 10196,8910 L 10058,8729 10333,8729 10196,8910 Z"/>
       </g>
      </g>
      <g class="com.sun.star.drawing.CustomShape">
       <g id="id35">
        <rect class="BoundingBox" stroke="none" fill="none" x="8885" y="6025" width="1640" height="2422"/>
        <path fill="rgb(221,221,221)" stroke="none" d="M 9705,8445 L 8886,8445 8886,6026 10523,6026 10523,8445 9705,8445 Z"/>
        <path fill="none" stroke="rgb(221,221,221)" d="M 9705,8445 L 8886,8445 8886,6026 10523,6026 10523,8445 9705,8445 Z"/>
       </g>
      </g>
      <g class="com.sun.star.drawing.CustomShape">
       <g id="id36">
        <rect class="BoundingBox" stroke="none" fill="none" x="10176" y="6025" width="350" height="237"/>
        <path fill="rgb(159,2,2)" stroke="none" d="M 10351,6260 L 10177,6260 10177,6026 10524,6026 10524,6260 10351,6260 Z"/>
        <path fill="none" stroke="rgb(159,2,2)" d="M 10351,6260 L 10177,6260 10177,6026 10524,6026 10524,6260 10351,6260 Z"/>
       </g>
      </g>
      <g class="com.sun.star.drawing.CustomShape">
       <g id="id37">
        <rect class="BoundingBox" stroke="none" fill="none" x="8881" y="6743" width="456" height="329"/>
        <path fill="rgb(128,128,128)" stroke="none" d="M 8936,6744 L 8936,6744 C 8927,6744 8917,6747 8909,6751 8901,6756 8894,6763 8889,6771 8885,6779 8882,6789 8882,6798 L 8882,7015 8882,7016 C 8882,7025 8885,7035 8889,7043 8894,7051 8901,7058 8909,7063 8917,7067 8927,7070 8936,7070 L 9280,7070 9281,7070 C 9290,7070 9300,7067 9308,7063 9316,7058 9323,7051 9328,7043 9332,7035 9335,7025 9335,7016 L 9335,6798 9335,6798 9335,6798 C 9335,6789 9332,6779 9328,6771 9323,6763 9316,6756 9308,6751 9300,6747 9290,6744 9281,6744 L 8936,6744 Z"/>
        <path fill="none" stroke="rgb(128,128,128)" d="M 8936,6744 L 8936,6744 C 8927,6744 8917,6747 8909,6751 8901,6756 8894,6763 8889,6771 8885,6779 8882,6789 8882,6798 L 8882,7015 8882,7016 C 8882,7025 8885,7035 8889,7043 8894,7051 8901,7058 8909,7063 8917,7067 8927,7070 8936,7070 L 9280,7070 9281,7070 C 9290,7070 9300,7067 9308,7063 9316,7058 9323,7051 9328,7043 9332,7035 9335,7025 9335,7016 L 9335,6798 9335,6798 9335,6798 C 9335,6789 9332,6779 9328,6771 9323,6763 9316,6756 9308,6751 9300,6747 9290,6744 9281,6744 L 8936,6744 Z"/>
       </g>
      </g>
      <g class="com.sun.star.drawing.CustomShape">
       <g id="id38">
        <rect class="BoundingBox" stroke="none" fill="none" x="9343" y="6743" width="456" height="329"/>
        <path fill="rgb(128,128,128)" stroke="none" d="M 9398,6744 L 9398,6744 C 9389,6744 9379,6747 9371,6751 9363,6756 9356,6763 9351,6771 9347,6779 9344,6789 9344,6798 L 9344,7015 9344,7016 C 9344,7025 9347,7035 9351,7043 9356,7051 9363,7058 9371,7063 9379,7067 9389,7070 9398,7070 L 9742,7070 9743,7070 C 9752,7070 9762,7067 9770,7063 9778,7058 9785,7051 9790,7043 9794,7035 9797,7025 9797,7016 L 9797,6798 9797,6798 9797,6798 C 9797,6789 9794,6779 9790,6771 9785,6763 9778,6756 9770,6751 9762,6747 9752,6744 9743,6744 L 9398,6744 Z"/>
        <path fill="none" stroke="rgb(128,128,128)" d="M 9398,6744 L 9398,6744 C 9389,6744 9379,6747 9371,6751 9363,6756 9356,6763 9351,6771 9347,6779 9344,6789 9344,6798 L 9344,7015 9344,7016 C 9344,7025 9347,7035 9351,7043 9356,7051 9363,7058 9371,7063 9379,7067 9389,7070 9398,7070 L 9742,7070 9743,7070 C 9752,7070 9762,7067 9770,7063 9778,7058 9785,7051 9790,7043 9794,7035 9797,7025 9797,7016 L 9797,6798 9797,6798 9797,6798 C 9797,6789 9794,6779 9790,6771 9785,6763 9778,6756 9770,6751 9762,6747 9752,6744 9743,6744 L 9398,6744 Z"/>
       </g>
      </g>
      <g class="com.sun.star.drawing.CustomShape">
       <g id="id39">
        <rect class="BoundingBox" stroke="none" fill="none" x="9806" y="6742" width="456" height="329"/>
        <path fill="rgb(128,128,128)" stroke="none" d="M 9861,6743 L 9861,6743 C 9852,6743 9842,6746 9834,6750 9826,6755 9819,6762 9814,6770 9810,6778 9807,6788 9807,6797 L 9807,7014 9807,7015 C 9807,7024 9810,7034 9814,7042 9819,7050 9826,7057 9834,7062 9842,7066 9852,7069 9861,7069 L 10205,7069 10206,7069 C 10215,7069 10225,7066 10233,7062 10241,7057 10248,7050 10253,7042 10257,7034 10260,7024 10260,7015 L 10260,6797 10260,6797 10260,6797 C 10260,6788 10257,6778 10253,6770 10248,6762 10241,6755 10233,6750 10225,6746 10215,6743 10206,6743 L 9861,6743 Z"/>
        <path fill="none" stroke="rgb(128,128,128)" d="M 9861,6743 L 9861,6743 C 9852,6743 9842,6746 9834,6750 9826,6755 9819,6762 9814,6770 9810,6778 9807,6788 9807,6797 L 9807,7014 9807,7015 C 9807,7024 9810,7034 9814,7042 9819,7050 9826,7057 9834,7062 9842,7066 9852,7069 9861,7069 L 10205,7069 10206,7069 C 10215,7069 10225,7066 10233,7062 10241,7057 10248,7050 10253,7042 10257,7034 10260,7024 10260,7015 L 10260,6797 10260,6797 10260,6797 C 10260,6788 10257,6778 10253,6770 10248,6762 10241,6755 10233,6750 10225,6746 10215,6743 10206,6743 L 9861,6743 Z"/>
       </g>
      </g>
      <g class="com.sun.star.drawing.CustomShape">
       <g id="id40">
        <rect class="BoundingBox" stroke="none" fill="none" x="8882" y="7085" width="456" height="329"/>
        <path fill="rgb(128,128,128)" stroke="none" d="M 8937,7086 L 8937,7086 C 8928,7086 8918,7089 8910,7093 8902,7098 8895,7105 8890,7113 8886,7121 8883,7131 8883,7140 L 8883,7357 8883,7358 C 8883,7367 8886,7377 8890,7385 8895,7393 8902,7400 8910,7405 8918,7409 8928,7412 8937,7412 L 9281,7412 9282,7412 C 9291,7412 9301,7409 9309,7405 9317,7400 9324,7393 9329,7385 9333,7377 9336,7367 9336,7358 L 9336,7140 9336,7140 9336,7140 C 9336,7131 9333,7121 9329,7113 9324,7105 9317,7098 9309,7093 9301,7089 9291,7086 9282,7086 L 8937,7086 Z"/>
        <path fill="none" stroke="rgb(128,128,128)" d="M 8937,7086 L 8937,7086 C 8928,7086 8918,7089 8910,7093 8902,7098 8895,7105 8890,7113 8886,7121 8883,7131 8883,7140 L 8883,7357 8883,7358 C 8883,7367 8886,7377 8890,7385 8895,7393 8902,7400 8910,7405 8918,7409 8928,7412 8937,7412 L 9281,7412 9282,7412 C 9291,7412 9301,7409 9309,7405 9317,7400 9324,7393 9329,7385 9333,7377 9336,7367 9336,7358 L 9336,7140 9336,7140 9336,7140 C 9336,7131 9333,7121 9329,7113 9324,7105 9317,7098 9309,7093 9301,7089 9291,7086 9282,7086 L 8937,7086 Z"/>
       </g>
      </g>
      <g class="com.sun.star.drawing.CustomShape">
       <g id="id41">
        <rect class="BoundingBox" stroke="none" fill="none" x="9344" y="7085" width="456" height="329"/>
        <path fill="rgb(128,128,128)" stroke="none" d="M 9399,7086 L 9399,7086 C 9390,7086 9380,7089 9372,7093 9364,7098 9357,7105 9352,7113 9348,7121 9345,7131 9345,7140 L 9345,7357 9345,7358 C 9345,7367 9348,7377 9352,7385 9357,7393 9364,7400 9372,7405 9380,7409 9390,7412 9399,7412 L 9743,7412 9744,7412 C 9753,7412 9763,7409 9771,7405 9779,7400 9786,7393 9791,7385 9795,7377 9798,7367 9798,7358 L 9798,7140 9798,7140 9798,7140 C 9798,7131 9795,7121 9791,7113 9786,7105 9779,7098 9771,7093 9763,7089 9753,7086 9744,7086 L 9399,7086 Z"/>
        <path fill="none" stroke="rgb(128,128,128)" d="M 9399,7086 L 9399,7086 C 9390,7086 9380,7089 9372,7093 9364,7098 9357,7105 9352,7113 9348,7121 9345,7131 9345,7140 L 9345,7357 9345,7358 C 9345,7367 9348,7377 9352,7385 9357,7393 9364,7400 9372,7405 9380,7409 9390,7412 9399,7412 L 9743,7412 9744,7412 C 9753,7412 9763,7409 9771,7405 9779,7400 9786,7393 9791,7385 9795,7377 9798,7367 9798,7358 L 9798,7140 9798,7140 9798,7140 C 9798,7131 9795,7121 9791,7113 9786,7105 9779,7098 9771,7093 9763,7089 9753,7086 9744,7086 L 9399,7086 Z"/>
       </g>
      </g>
      <g class="com.sun.star.drawing.CustomShape">
       <g id="id42">
        <rect class="BoundingBox" stroke="none" fill="none" x="9807" y="7084" width="456" height="329"/>
        <path fill="rgb(128,128,128)" stroke="none" d="M 9862,7085 L 9862,7085 C 9853,7085 9843,7088 9835,7092 9827,7097 9820,7104 9815,7112 9811,7120 9808,7130 9808,7139 L 9808,7356 9808,7357 C 9808,7366 9811,7376 9815,7384 9820,7392 9827,7399 9835,7404 9843,7408 9853,7411 9862,7411 L 10206,7411 10207,7411 C 10216,7411 10226,7408 10234,7404 10242,7399 10249,7392 10254,7384 10258,7376 10261,7366 10261,7357 L 10261,7139 10261,7139 10261,7139 C 10261,7130 10258,7120 10254,7112 10249,7104 10242,7097 10234,7092 10226,7088 10216,7085 10207,7085 L 9862,7085 Z"/>
        <path fill="none" stroke="rgb(128,128,128)" d="M 9862,7085 L 9862,7085 C 9853,7085 9843,7088 9835,7092 9827,7097 9820,7104 9815,7112 9811,7120 9808,7130 9808,7139 L 9808,7356 9808,7357 C 9808,7366 9811,7376 9815,7384 9820,7392 9827,7399 9835,7404 9843,7408 9853,7411 9862,7411 L 10206,7411 10207,7411 C 10216,7411 10226,7408 10234,7404 10242,7399 10249,7392 10254,7384 10258,7376 10261,7366 10261,7357 L 10261,7139 10261,7139 10261,7139 C 10261,7130 10258,7120 10254,7112 10249,7104 10242,7097 10234,7092 10226,7088 10216,7085 10207,7085 L 9862,7085 Z"/>
       </g>
      </g>
      <g class="com.sun.star.drawing.CustomShape">
       <g id="id43">
        <rect class="BoundingBox" stroke="none" fill="none" x="8882" y="7434" width="456" height="329"/>
        <path fill="rgb(128,128,128)" stroke="none" d="M 8937,7435 L 8937,7435 C 8928,7435 8918,7438 8910,7442 8902,7447 8895,7454 8890,7462 8886,7470 8883,7480 8883,7489 L 8883,7706 8883,7707 C 8883,7716 8886,7726 8890,7734 8895,7742 8902,7749 8910,7754 8918,7758 8928,7761 8937,7761 L 9281,7761 9282,7761 C 9291,7761 9301,7758 9309,7754 9317,7749 9324,7742 9329,7734 9333,7726 9336,7716 9336,7707 L 9336,7489 9336,7489 9336,7489 C 9336,7480 9333,7470 9329,7462 9324,7454 9317,7447 9309,7442 9301,7438 9291,7435 9282,7435 L 8937,7435 Z"/>
        <path fill="none" stroke="rgb(128,128,128)" d="M 8937,7435 L 8937,7435 C 8928,7435 8918,7438 8910,7442 8902,7447 8895,7454 8890,7462 8886,7470 8883,7480 8883,7489 L 8883,7706 8883,7707 C 8883,7716 8886,7726 8890,7734 8895,7742 8902,7749 8910,7754 8918,7758 8928,7761 8937,7761 L 9281,7761 9282,7761 C 9291,7761 9301,7758 9309,7754 9317,7749 9324,7742 9329,7734 9333,7726 9336,7716 9336,7707 L 9336,7489 9336,7489 9336,7489 C 9336,7480 9333,7470 9329,7462 9324,7454 9317,7447 9309,7442 9301,7438 9291,7435 9282,7435 L 8937,7435 Z"/>
       </g>
      </g>
      <g class="com.sun.star.drawing.CustomShape">
       <g id="id44">
        <rect class="BoundingBox" stroke="none" fill="none" x="9344" y="7434" width="456" height="329"/>
        <path fill="rgb(128,128,128)" stroke="none" d="M 9399,7435 L 9399,7435 C 9390,7435 9380,7438 9372,7442 9364,7447 9357,7454 9352,7462 9348,7470 9345,7480 9345,7489 L 9345,7706 9345,7707 C 9345,7716 9348,7726 9352,7734 9357,7742 9364,7749 9372,7754 9380,7758 9390,7761 9399,7761 L 9743,7761 9744,7761 C 9753,7761 9763,7758 9771,7754 9779,7749 9786,7742 9791,7734 9795,7726 9798,7716 9798,7707 L 9798,7489 9798,7489 9798,7489 C 9798,7480 9795,7470 9791,7462 9786,7454 9779,7447 9771,7442 9763,7438 9753,7435 9744,7435 L 9399,7435 Z"/>
        <path fill="none" stroke="rgb(128,128,128)" d="M 9399,7435 L 9399,7435 C 9390,7435 9380,7438 9372,7442 9364,7447 9357,7454 9352,7462 9348,7470 9345,7480 9345,7489 L 9345,7706 9345,7707 C 9345,7716 9348,7726 9352,7734 9357,7742 9364,7749 9372,7754 9380,7758 9390,7761 9399,7761 L 9743,7761 9744,7761 C 9753,7761 9763,7758 9771,7754 9779,7749 9786,7742 9791,7734 9795,7726 9798,7716 9798,7707 L 9798,7489 9798,7489 9798,7489 C 9798,7480 9795,7470 9791,7462 9786,7454 9779,7447 9771,7442 9763,7438 9753,7435 9744,7435 L 9399,7435 Z"/>
       </g>
      </g>
      <g class="com.sun.star.drawing.CustomShape">
       <g id="id45">
        <rect class="BoundingBox" stroke="none" fill="none" x="9807" y="7433" width="456" height="329"/>
        <path fill="rgb(128,128,128)" stroke="none" d="M 9862,7434 L 9862,7434 C 9853,7434 9843,7437 9835,7441 9827,7446 9820,7453 9815,7461 9811,7469 9808,7479 9808,7488 L 9808,7705 9808,7706 C 9808,7715 9811,7725 9815,7733 9820,7741 9827,7748 9835,7753 9843,7757 9853,7760 9862,7760 L 10206,7760 10207,7760 C 10216,7760 10226,7757 10234,7753 10242,7748 10249,7741 10254,7733 10258,7725 10261,7715 10261,7706 L 10261,7488 10261,7488 10261,7488 C 10261,7479 10258,7469 10254,7461 10249,7453 10242,7446 10234,7441 10226,7437 10216,7434 10207,7434 L 9862,7434 Z"/>
        <path fill="none" stroke="rgb(128,128,128)" d="M 9862,7434 L 9862,7434 C 9853,7434 9843,7437 9835,7441 9827,7446 9820,7453 9815,7461 9811,7469 9808,7479 9808,7488 L 9808,7705 9808,7706 C 9808,7715 9811,7725 9815,7733 9820,7741 9827,7748 9835,7753 9843,7757 9853,7760 9862,7760 L 10206,7760 10207,7760 C 10216,7760 10226,7757 10234,7753 10242,7748 10249,7741 10254,7733 10258,7725 10261,7715 10261,7706 L 10261,7488 10261,7488 10261,7488 C 10261,7479 10258,7469 10254,7461 10249,7453 10242,7446 10234,7441 10226,7437 10216,7434 10207,7434 L 9862,7434 Z"/>
       </g>
      </g>
      <g class="com.sun.star.drawing.CustomShape">
       <g id="id46">
        <rect class="BoundingBox" stroke="none" fill="none" x="8883" y="7776" width="456" height="329"/>
        <path fill="rgb(128,128,128)" stroke="none" d="M 8938,7777 L 8938,7777 C 8929,7777 8919,7780 8911,7784 8903,7789 8896,7796 8891,7804 8887,7812 8884,7822 8884,7831 L 8884,8048 8884,8049 C 8884,8058 8887,8068 8891,8076 8896,8084 8903,8091 8911,8096 8919,8100 8929,8103 8938,8103 L 9282,8103 9283,8103 C 9292,8103 9302,8100 9310,8096 9318,8091 9325,8084 9330,8076 9334,8068 9337,8058 9337,8049 L 9337,7831 9337,7831 9337,7831 C 9337,7822 9334,7812 9330,7804 9325,7796 9318,7789 9310,7784 9302,7780 9292,7777 9283,7777 L 8938,7777 Z"/>
        <path fill="none" stroke="rgb(128,128,128)" d="M 8938,7777 L 8938,7777 C 8929,7777 8919,7780 8911,7784 8903,7789 8896,7796 8891,7804 8887,7812 8884,7822 8884,7831 L 8884,8048 8884,8049 C 8884,8058 8887,8068 8891,8076 8896,8084 8903,8091 8911,8096 8919,8100 8929,8103 8938,8103 L 9282,8103 9283,8103 C 9292,8103 9302,8100 9310,8096 9318,8091 9325,8084 9330,8076 9334,8068 9337,8058 9337,8049 L 9337,7831 9337,7831 9337,7831 C 9337,7822 9334,7812 9330,7804 9325,7796 9318,7789 9310,7784 9302,7780 9292,7777 9283,7777 L 8938,7777 Z"/>
       </g>
      </g>
      <g class="com.sun.star.drawing.CustomShape">
       <g id="id47">
        <rect class="BoundingBox" stroke="none" fill="none" x="9345" y="7776" width="456" height="329"/>
        <path fill="rgb(128,128,128)" stroke="none" d="M 9400,7777 L 9400,7777 C 9391,7777 9381,7780 9373,7784 9365,7789 9358,7796 9353,7804 9349,7812 9346,7822 9346,7831 L 9346,8048 9346,8049 C 9346,8058 9349,8068 9353,8076 9358,8084 9365,8091 9373,8096 9381,8100 9391,8103 9400,8103 L 9744,8103 9745,8103 C 9754,8103 9764,8100 9772,8096 9780,8091 9787,8084 9792,8076 9796,8068 9799,8058 9799,8049 L 9799,7831 9799,7831 9799,7831 C 9799,7822 9796,7812 9792,7804 9787,7796 9780,7789 9772,7784 9764,7780 9754,7777 9745,7777 L 9400,7777 Z"/>
        <path fill="none" stroke="rgb(128,128,128)" d="M 9400,7777 L 9400,7777 C 9391,7777 9381,7780 9373,7784 9365,7789 9358,7796 9353,7804 9349,7812 9346,7822 9346,7831 L 9346,8048 9346,8049 C 9346,8058 9349,8068 9353,8076 9358,8084 9365,8091 9373,8096 9381,8100 9391,8103 9400,8103 L 9744,8103 9745,8103 C 9754,8103 9764,8100 9772,8096 9780,8091 9787,8084 9792,8076 9796,8068 9799,8058 9799,8049 L 9799,7831 9799,7831 9799,7831 C 9799,7822 9796,7812 9792,7804 9787,7796 9780,7789 9772,7784 9764,7780 9754,7777 9745,7777 L 9400,7777 Z"/>
       </g>
      </g>
      <g class="com.sun.star.drawing.CustomShape">
       <g id="id48">
        <rect class="BoundingBox" stroke="none" fill="none" x="9808" y="7775" width="456" height="329"/>
        <path fill="rgb(128,128,128)" stroke="none" d="M 9863,7776 L 9863,7776 C 9854,7776 9844,7779 9836,7783 9828,7788 9821,7795 9816,7803 9812,7811 9809,7821 9809,7830 L 9809,8047 9809,8048 C 9809,8057 9812,8067 9816,8075 9821,8083 9828,8090 9836,8095 9844,8099 9854,8102 9863,8102 L 10207,8102 10208,8102 C 10217,8102 10227,8099 10235,8095 10243,8090 10250,8083 10255,8075 10259,8067 10262,8057 10262,8048 L 10262,7830 10262,7830 10262,7830 C 10262,7821 10259,7811 10255,7803 10250,7795 10243,7788 10235,7783 10227,7779 10217,7776 10208,7776 L 9863,7776 Z"/>
        <path fill="none" stroke="rgb(128,128,128)" d="M 9863,7776 L 9863,7776 C 9854,7776 9844,7779 9836,7783 9828,7788 9821,7795 9816,7803 9812,7811 9809,7821 9809,7830 L 9809,8047 9809,8048 C 9809,8057 9812,8067 9816,8075 9821,8083 9828,8090 9836,8095 9844,8099 9854,8102 9863,8102 L 10207,8102 10208,8102 C 10217,8102 10227,8099 10235,8095 10243,8090 10250,8083 10255,8075 10259,8067 10262,8057 10262,8048 L 10262,7830 10262,7830 10262,7830 C 10262,7821 10259,7811 10255,7803 10250,7795 10243,7788 10235,7783 10227,7779 10217,7776 10208,7776 L 9863,7776 Z"/>
       </g>
      </g>
      <g class="com.sun.star.drawing.CustomShape">
       <g id="id49">
        <rect class="BoundingBox" stroke="none" fill="none" x="8884" y="8123" width="914" height="316"/>
        <path fill="rgb(128,128,128)" stroke="none" d="M 8937,8124 L 8937,8124 C 8928,8124 8919,8126 8911,8131 8903,8136 8897,8142 8892,8150 8887,8158 8885,8167 8885,8176 L 8885,8384 8885,8385 C 8885,8394 8887,8403 8892,8411 8897,8419 8903,8425 8911,8430 8919,8435 8928,8437 8937,8437 L 9743,8437 9744,8437 C 9753,8437 9762,8435 9770,8430 9778,8425 9784,8419 9789,8411 9794,8403 9796,8394 9796,8385 L 9796,8176 9796,8176 9796,8176 C 9796,8167 9794,8158 9789,8150 9784,8142 9778,8136 9770,8131 9762,8126 9753,8124 9744,8124 L 8937,8124 Z"/>
        <path fill="none" stroke="rgb(128,128,128)" d="M 8937,8124 L 8937,8124 C 8928,8124 8919,8126 8911,8131 8903,8136 8897,8142 8892,8150 8887,8158 8885,8167 8885,8176 L 8885,8384 8885,8385 C 8885,8394 8887,8403 8892,8411 8897,8419 8903,8425 8911,8430 8919,8435 8928,8437 8937,8437 L 9743,8437 9744,8437 C 9753,8437 9762,8435 9770,8430 9778,8425 9784,8419 9789,8411 9794,8403 9796,8394 9796,8385 L 9796,8176 9796,8176 9796,8176 C 9796,8167 9794,8158 9789,8150 9784,8142 9778,8136 9770,8131 9762,8126 9753,8124 9744,8124 L 8937,8124 Z"/>
       </g>
      </g>
      <g class="com.sun.star.drawing.CustomShape">
       <g id="id50">
        <rect class="BoundingBox" stroke="none" fill="none" x="9805" y="8112" width="456" height="329"/>
        <path fill="rgb(128,128,128)" stroke="none" d="M 9860,8113 L 9860,8113 C 9851,8113 9841,8116 9833,8120 9825,8125 9818,8132 9813,8140 9809,8148 9806,8158 9806,8167 L 9806,8384 9806,8385 C 9806,8394 9809,8404 9813,8412 9818,8420 9825,8427 9833,8432 9841,8436 9851,8439 9860,8439 L 10204,8439 10205,8439 C 10214,8439 10224,8436 10232,8432 10240,8427 10247,8420 10252,8412 10256,8404 10259,8394 10259,8385 L 10259,8167 10259,8167 10259,8167 C 10259,8158 10256,8148 10252,8140 10247,8132 10240,8125 10232,8120 10224,8116 10214,8113 10205,8113 L 9860,8113 Z"/>
        <path fill="none" stroke="rgb(128,128,128)" d="M 9860,8113 L 9860,8113 C 9851,8113 9841,8116 9833,8120 9825,8125 9818,8132 9813,8140 9809,8148 9806,8158 9806,8167 L 9806,8384 9806,8385 C 9806,8394 9809,8404 9813,8412 9818,8420 9825,8427 9833,8432 9841,8436 9851,8439 9860,8439 L 10204,8439 10205,8439 C 10214,8439 10224,8436 10232,8432 10240,8427 10247,8420 10252,8412 10256,8404 10259,8394 10259,8385 L 10259,8167 10259,8167 10259,8167 C 10259,8158 10256,8148 10252,8140 10247,8132 10240,8125 10232,8120 10224,8116 10214,8113 10205,8113 L 9860,8113 Z"/>
       </g>
      </g>
      <g class="com.sun.star.drawing.CustomShape">
       <g id="id51">
        <rect class="BoundingBox" stroke="none" fill="none" x="10271" y="7433" width="242" height="1001"/>
        <path fill="rgb(128,128,128)" stroke="none" d="M 10311,7434 L 10312,7434 C 10305,7434 10298,7436 10292,7439 10286,7443 10281,7448 10277,7454 10274,7460 10272,7467 10272,7474 L 10272,8392 10272,8392 C 10272,8399 10274,8406 10277,8412 10281,8418 10286,8423 10292,8427 10298,8430 10305,8432 10312,8432 L 10471,8432 10471,8432 C 10478,8432 10485,8430 10491,8427 10497,8423 10502,8418 10506,8412 10509,8406 10511,8399 10511,8392 L 10511,7473 10511,7474 10511,7474 C 10511,7467 10509,7460 10506,7454 10502,7448 10497,7443 10491,7439 10485,7436 10478,7434 10471,7434 L 10311,7434 Z"/>
        <path fill="none" stroke="rgb(128,128,128)" d="M 10311,7434 L 10312,7434 C 10305,7434 10298,7436 10292,7439 10286,7443 10281,7448 10277,7454 10274,7460 10272,7467 10272,7474 L 10272,8392 10272,8392 C 10272,8399 10274,8406 10277,8412 10281,8418 10286,8423 10292,8427 10298,8430 10305,8432 10312,8432 L 10471,8432 10471,8432 C 10478,8432 10485,8430 10491,8427 10497,8423 10502,8418 10506,8412 10509,8406 10511,8399 10511,8392 L 10511,7473 10511,7474 10511,7474 C 10511,7467 10509,7460 10506,7454 10502,7448 10497,7443 10491,7439 10485,7436 10478,7434 10471,7434 L 10311,7434 Z"/>
       </g>
      </g>
      <g class="com.sun.star.drawing.CustomShape">
       <g id="id52">
        <rect class="BoundingBox" stroke="none" fill="none" x="10272" y="6740" width="242" height="682"/>
        <path fill="rgb(128,128,128)" stroke="none" d="M 10312,6741 L 10313,6741 C 10306,6741 10299,6743 10293,6746 10287,6750 10282,6755 10278,6761 10275,6767 10273,6774 10273,6781 L 10273,7380 10273,7380 C 10273,7387 10275,7394 10278,7400 10282,7406 10287,7411 10293,7415 10299,7418 10306,7420 10313,7420 L 10472,7420 10472,7420 C 10479,7420 10486,7418 10492,7415 10498,7411 10503,7406 10507,7400 10510,7394 10512,7387 10512,7380 L 10512,6780 10512,6781 10512,6781 C 10512,6774 10510,6767 10507,6761 10503,6755 10498,6750 10492,6746 10486,6743 10479,6741 10472,6741 L 10312,6741 Z"/>
        <path fill="none" stroke="rgb(128,128,128)" d="M 10312,6741 L 10313,6741 C 10306,6741 10299,6743 10293,6746 10287,6750 10282,6755 10278,6761 10275,6767 10273,6774 10273,6781 L 10273,7380 10273,7380 C 10273,7387 10275,7394 10278,7400 10282,7406 10287,7411 10293,7415 10299,7418 10306,7420 10313,7420 L 10472,7420 10472,7420 C 10479,7420 10486,7418 10492,7415 10498,7411 10503,7406 10507,7400 10510,7394 10512,7387 10512,7380 L 10512,6780 10512,6781 10512,6781 C 10512,6774 10510,6767 10507,6761 10503,6755 10498,6750 10492,6746 10486,6743 10479,6741 10472,6741 L 10312,6741 Z"/>
       </g>
      </g>
      <g class="com.sun.star.drawing.CustomShape">
       <g id="id53">
        <rect class="BoundingBox" stroke="none" fill="none" x="8886" y="6020" width="1291" height="698"/>
        <path fill="rgb(102,102,102)" stroke="none" d="M 9531,6716 L 8887,6716 8887,6021 10175,6021 10175,6716 9531,6716 Z"/>
        <path fill="none" stroke="rgb(102,102,102)" d="M 9531,6716 L 8887,6716 8887,6021 10175,6021 10175,6716 9531,6716 Z"/>
       </g>
      </g>
      <g class="com.sun.star.drawing.CustomShape">
       <g id="id54">
        <rect class="BoundingBox" stroke="none" fill="none" x="4197" y="4238" width="396" height="314"/>
        <path fill="rgb(114,159,207)" stroke="none" d="M 4198,4239 L 4591,4239 4492,4550 4296,4550 4198,4239 Z"/>
        <path fill="none" stroke="rgb(52,101,164)" d="M 4198,4239 L 4591,4239 4492,4550 4296,4550 4198,4239 Z"/>
       </g>
      </g>
      <g class="com.sun.star.drawing.CustomShape">
       <g id="id55">
        <rect class="BoundingBox" stroke="none" fill="none" x="4133" y="4786" width="505" height="380"/>
        <path fill="rgb(114,159,207)" stroke="none" d="M 4134,4787 L 4636,4787 4636,5089 C 4437,5087 4444,5149 4264,5164 4200,5155 4176,5148 4134,5138 L 4134,4787 Z"/>
        <path fill="none" stroke="rgb(52,101,164)" d="M 4134,4787 L 4636,4787 4636,5089 C 4437,5087 4444,5149 4264,5164 4200,5155 4176,5148 4134,5138 L 4134,4787 Z"/>
       </g>
      </g>
      <g class="com.sun.star.drawing.CustomShape">
       <g id="id56">
        <rect class="BoundingBox" stroke="none" fill="none" x="4133" y="5287" width="505" height="380"/>
        <path fill="rgb(114,159,207)" stroke="none" d="M 4134,5288 L 4636,5288 4636,5590 C 4437,5588 4444,5650 4264,5665 4200,5656 4176,5649 4134,5639 L 4134,5288 Z"/>
        <path fill="none" stroke="rgb(52,101,164)" d="M 4134,5288 L 4636,5288 4636,5590 C 4437,5588 4444,5650 4264,5665 4200,5656 4176,5649 4134,5639 L 4134,5288 Z"/>
       </g>
      </g>
      <g class="com.sun.star.drawing.CustomShape">
       <g id="id57">
        <rect class="BoundingBox" stroke="none" fill="none" x="4133" y="5788" width="505" height="380"/>
        <path fill="rgb(114,159,207)" stroke="none" d="M 4134,5789 L 4636,5789 4636,6091 C 4437,6089 4444,6151 4264,6166 4200,6157 4176,6150 4134,6140 L 4134,5789 Z"/>
        <path fill="none" stroke="rgb(52,101,164)" d="M 4134,5789 L 4636,5789 4636,6091 C 4437,6089 4444,6151 4264,6166 4200,6157 4176,6150 4134,6140 L 4134,5789 Z"/>
       </g>
      </g>
      <g class="com.sun.star.drawing.CustomShape">
       <g id="id58">
        <rect class="BoundingBox" stroke="none" fill="none" x="4133" y="6289" width="505" height="380"/>
        <path fill="rgb(114,159,207)" stroke="none" d="M 4134,6290 L 4636,6290 4636,6592 C 4437,6590 4444,6652 4264,6667 4200,6658 4176,6651 4134,6641 L 4134,6290 Z"/>
        <path fill="none" stroke="rgb(52,101,164)" d="M 4134,6290 L 4636,6290 4636,6592 C 4437,6590 4444,6652 4264,6667 4200,6658 4176,6651 4134,6641 L 4134,6290 Z"/>
       </g>
      </g>
      <g class="com.sun.star.drawing.CustomShape">
       <g id="id59">
        <rect class="BoundingBox" stroke="none" fill="none" x="4733" y="4787" width="505" height="380"/>
        <path fill="rgb(114,159,207)" stroke="none" d="M 4734,4788 L 5236,4788 5236,5090 C 5037,5088 5044,5150 4864,5165 4800,5156 4776,5149 4734,5139 L 4734,4788 Z"/>
        <path fill="none" stroke="rgb(52,101,164)" d="M 4734,4788 L 5236,4788 5236,5090 C 5037,5088 5044,5150 4864,5165 4800,5156 4776,5149 4734,5139 L 4734,4788 Z"/>
       </g>
      </g>
      <g class="com.sun.star.drawing.CustomShape">
       <g id="id60">
        <rect class="BoundingBox" stroke="none" fill="none" x="4733" y="5288" width="505" height="380"/>
        <path fill="rgb(114,159,207)" stroke="none" d="M 4734,5289 L 5236,5289 5236,5591 C 5037,5589 5044,5651 4864,5666 4800,5657 4776,5650 4734,5640 L 4734,5289 Z"/>
        <path fill="none" stroke="rgb(52,101,164)" d="M 4734,5289 L 5236,5289 5236,5591 C 5037,5589 5044,5651 4864,5666 4800,5657 4776,5650 4734,5640 L 4734,5289 Z"/>
       </g>
      </g>
      <g class="com.sun.star.drawing.CustomShape">
       <g id="id61">
        <rect class="BoundingBox" stroke="none" fill="none" x="4737" y="4231" width="505" height="380"/>
        <path fill="rgb(114,159,207)" stroke="none" d="M 4738,4232 L 5240,4232 5240,4534 C 5041,4532 5048,4594 4868,4609 4804,4600 4780,4593 4738,4583 L 4738,4232 Z"/>
        <path fill="none" stroke="rgb(52,101,164)" d="M 4738,4232 L 5240,4232 5240,4534 C 5041,4532 5048,4594 4868,4609 4804,4600 4780,4593 4738,4583 L 4738,4232 Z"/>
       </g>
      </g>
      <g class="com.sun.star.drawing.CustomShape">
       <g id="id62">
        <rect class="BoundingBox" stroke="none" fill="none" x="10103" y="9529" width="2235" height="1062"/>
        <path fill="rgb(153,153,153)" stroke="none" d="M 11220,10589 L 10104,10589 10104,9530 12336,9530 12336,10589 11220,10589 Z"/>
        <path fill="none" stroke="rgb(153,153,153)" d="M 11220,10589 L 10104,10589 10104,9530 12336,9530 12336,10589 11220,10589 Z"/>
       </g>
      </g>
     </g>
    </g>
   </g>
  </g>
 </g>
</svg>