<?xml version="1.0" encoding="UTF-8"?>
<!DOCTYPE svg PUBLIC "-//W3C//DTD SVG 1.1//EN" "http://www.w3.org/Graphics/SVG/1.1/DTD/svg11.dtd">
<svg version="1.2" width="60mm" height="60mm" viewBox="0 0 6000 6000" preserveAspectRatio="xMidYMid" fill-rule="evenodd" stroke-width="28.222" stroke-linejoin="round" xmlns="http://www.w3.org/2000/svg" xmlns:ooo="http://xml.openoffice.org/svg/export" xmlns:xlink="http://www.w3.org/1999/xlink" xmlns:presentation="http://sun.com/xmlns/staroffice/presentation" xmlns:smil="http://www.w3.org/2001/SMIL20/" xmlns:anim="urn:oasis:names:tc:opendocument:xmlns:animation:1.0" xmlns:svg="urn:oasis:names:tc:opendocument:xmlns:svg-compatible:1.0" xml:space="preserve">
 <defs class="ClipPathGroup">
  <clipPath id="presentation_clip_path" clipPathUnits="userSpaceOnUse">
   <rect x="0" y="0" width="6000" height="6000"/>
  </clipPath>
  <clipPath id="presentation_clip_path_shrink" clipPathUnits="userSpaceOnUse">
   <rect x="6" y="6" width="5988" height="5988"/>
  </clipPath>
 </defs>
 <defs class="TextShapeIndex">
  <g ooo:slide="id1" ooo:id-list="id3 id4"/>
 </defs>
 <defs class="EmbeddedBulletChars">
  <g id="bullet-char-template-57356" transform="scale(0.00048828125,-0.00048828125)">
   <path d="M 580,1141 L 1163,571 580,0 -4,571 580,1141 Z"/>
  </g>
  <g id="bullet-char-template-57354" transform="scale(0.00048828125,-0.00048828125)">
   <path d="M 8,1128 L 1137,1128 1137,0 8,0 8,1128 Z"/>
  </g>
  <g id="bullet-char-template-10146" transform="scale(0.00048828125,-0.00048828125)">
   <path d="M 174,0 L 602,739 174,1481 1456,739 174,0 Z M 1358,739 L 309,1346 659,739 1358,739 Z"/>
  </g>
  <g id="bullet-char-template-10132" transform="scale(0.00048828125,-0.00048828125)">
   <path d="M 2015,739 L 1276,0 717,0 1260,543 174,543 174,936 1260,936 717,1481 1274,1481 2015,739 Z"/>
  </g>
  <g id="bullet-char-template-10007" transform="scale(0.00048828125,-0.00048828125)">
   <path d="M 0,-2 C -7,14 -16,27 -25,37 L 356,567 C 262,823 215,952 215,954 215,979 228,992 255,992 264,992 276,990 289,987 310,991 331,999 354,1012 L 381,999 492,748 772,1049 836,1024 860,1049 C 881,1039 901,1025 922,1006 886,937 835,863 770,784 769,783 710,716 594,584 L 774,223 C 774,196 753,168 711,139 L 727,119 C 717,90 699,76 672,76 641,76 570,178 457,381 L 164,-76 C 142,-110 111,-127 72,-127 30,-127 9,-110 8,-76 1,-67 -2,-52 -2,-32 -2,-23 -1,-13 0,-2 Z"/>
  </g>
  <g id="bullet-char-template-10004" transform="scale(0.00048828125,-0.00048828125)">
   <path d="M 285,-33 C 182,-33 111,30 74,156 52,228 41,333 41,471 41,549 55,616 82,672 116,743 169,778 240,778 293,778 328,747 346,684 L 369,508 C 377,444 397,411 428,410 L 1163,1116 C 1174,1127 1196,1133 1229,1133 1271,1133 1292,1118 1292,1087 L 1292,965 C 1292,929 1282,901 1262,881 L 442,47 C 390,-6 338,-33 285,-33 Z"/>
  </g>
  <g id="bullet-char-template-9679" transform="scale(0.00048828125,-0.00048828125)">
   <path d="M 813,0 C 632,0 489,54 383,161 276,268 223,411 223,592 223,773 276,916 383,1023 489,1130 632,1184 813,1184 992,1184 1136,1130 1245,1023 1353,916 1407,772 1407,592 1407,412 1353,268 1245,161 1136,54 992,0 813,0 Z"/>
  </g>
  <g id="bullet-char-template-8226" transform="scale(0.00048828125,-0.00048828125)">
   <path d="M 346,457 C 273,457 209,483 155,535 101,586 74,649 74,723 74,796 101,859 155,911 209,963 273,989 346,989 419,989 480,963 531,910 582,859 608,796 608,723 608,648 583,586 532,535 482,483 420,457 346,457 Z"/>
  </g>
  <g id="bullet-char-template-8211" transform="scale(0.00048828125,-0.00048828125)">
   <path d="M -4,459 L 1135,459 1135,606 -4,606 -4,459 Z"/>
  </g>
  <g id="bullet-char-template-61548" transform="scale(0.00048828125,-0.00048828125)">
   <path d="M 173,740 C 173,903 231,1043 346,1159 462,1274 601,1332 765,1332 928,1332 1067,1274 1183,1159 1299,1043 1357,903 1357,740 1357,577 1299,437 1183,322 1067,206 928,148 765,148 601,148 462,206 346,322 231,437 173,577 173,740 Z"/>
  </g>
 </defs>
 <g>
  <g id="id2" class="Master_Slide">
   <g id="bg-id2" class="Background"/>
   <g id="bo-id2" class="BackgroundObjects"/>
  </g>
 </g>
 <g class="SlideGroup">
  <g>
   <g id="container-id1">
    <g id="id1" class="Slide" clip-path="url(#presentation_clip_path)">
     <g class="Page">
      <g class="com.sun.star.drawing.CustomShape">
       <g id="id3">
        <rect class="BoundingBox" stroke="none" fill="none" x="83" y="301" width="5790" height="5148"/>
        <path fill="rgb(255,255,255)" stroke="none" d="M 2977,476 L 5697,5273 258,5273 2977,476 Z"/>
        <path fill="none" stroke="rgb(155,36,32)" stroke-width="350" stroke-linejoin="round" stroke-linecap="round" d="M 2977,476 L 5697,5273 258,5273 2977,476 Z"/>
       </g>
      </g>
      <g class="Graphic">
       <g id="id4">
        <rect class="BoundingBox" stroke="none" fill="none" x="1795" y="2237" width="2477" height="2477"/>
        <defs>
         <clipPath id="clip_path_1" clipPathUnits="userSpaceOnUse">
          <path d="M 1795,2237 L 4271,2237 4271,4713 1795,4713 1795,2237 Z"/>
         </clipPath>
        </defs>
        <g clip-path="url(#clip_path_1)">
         <path fill="rgb(0,0,0)" stroke="none" d="M 3033,2237 C 3155,2237 3233,2329 3276,2415 3321,2505 3343,2613 3343,2701 L 3343,3272 4143,3672 C 4147,3675 4151,3677 4155,3679 4190,3699 4220,3729 4240,3764 4260,3799 4271,3839 4271,3880 L 4271,4094 C 4271,4108 4267,4121 4261,4133 4254,4144 4244,4154 4232,4161 4221,4168 4207,4171 4194,4171 4189,4171 4185,4171 4181,4170 L 3329,4028 3271,4377 3475,4581 C 3479,4586 3484,4591 3487,4597 3494,4609 3497,4622 3497,4636 3497,4649 3494,4663 3487,4674 3480,4686 3470,4696 3459,4703 3447,4709 3434,4713 3420,4713 3420,4713 3420,4713 3420,4713 L 2646,4713 C 2646,4713 2646,4713 2646,4713 2632,4713 2619,4709 2607,4703 2596,4696 2586,4686 2579,4674 2572,4663 2569,4649 2569,4636 2569,4622 2572,4609 2579,4597 2582,4591 2587,4586 2591,4581 L 2795,4377 2737,4028 1885,4170 C 1881,4171 1877,4171 1872,4171 1859,4171 1845,4168 1834,4161 1822,4154 1812,4144 1805,4133 1799,4121 1795,4108 1795,4094 L 1795,3880 C 1795,3839 1806,3799 1826,3764 1846,3729 1876,3699 1911,3679 1915,3677 1919,3675 1923,3672 L 2724,3272 2724,2701 C 2724,2613 2745,2505 2790,2415 2833,2328 2911,2237 3033,2237 Z M 2878,2701 L 2878,3320 C 2878,3334 2875,3347 2868,3359 2861,3371 2851,3380 2840,3387 2838,3388 2837,3389 2836,3389 L 1992,3811 C 1991,3812 1990,3812 1988,3813 1977,3820 1967,3830 1960,3841 1953,3853 1950,3867 1950,3880 L 1950,4003 2788,3863 C 2792,3862 2797,3862 2801,3862 2814,3862 2828,3865 2840,3872 2851,3879 2861,3889 2868,3901 2872,3909 2876,3917 2877,3926 L 2955,4391 C 2955,4395 2956,4399 2956,4403 2956,4417 2952,4430 2945,4442 2942,4448 2938,4453 2933,4458 L 2833,4558 3233,4558 3133,4458 C 3128,4453 3124,4448 3121,4442 3114,4430 3110,4417 3110,4404 3110,4399 3111,4395 3111,4391 L 3189,3927 C 3190,3917 3194,3909 3198,3901 3205,3889 3215,3879 3226,3872 3238,3865 3252,3862 3265,3862 3269,3862 3274,3862 3278,3863 L 4116,4003 4116,3880 C 4116,3867 4113,3853 4106,3841 4099,3830 4089,3820 4078,3813 4076,3812 4075,3812 4074,3811 L 3230,3389 C 3229,3389 3228,3388 3226,3387 3215,3380 3205,3371 3198,3359 3191,3347 3188,3334 3188,3320 L 3188,2701 C 3188,2634 3171,2550 3138,2484 3104,2416 3066,2392 3033,2392 3000,2392 2962,2416 2928,2484 2895,2550 2878,2635 2878,2701 Z"/>
        </g>
       </g>
      </g>
     </g>
    </g>
   </g>
  </g>
 </g>
</svg>